<?xml version="1.0" encoding="utf-8"?>
<!-- Generator: Adobe Illustrator 16.0.0, SVG Export Plug-In . SVG Version: 6.00 Build 0)  -->
<!DOCTYPE svg PUBLIC "-//W3C//DTD SVG 1.1//EN" "http://www.w3.org/Graphics/SVG/1.1/DTD/svg11.dtd">
<svg version="1.1" id="Layer_1" xmlns="http://www.w3.org/2000/svg" xmlns:xlink="http://www.w3.org/1999/xlink" x="0px" y="0px"
	 width="497.032px" height="78.01px" viewBox="-67.099 -10.531 497.032 78.01"
	 enable-background="new -67.099 -10.531 497.032 78.01" xml:space="preserve">
<g>
	
		<linearGradient id="SVGID_1_" gradientUnits="userSpaceOnUse" x1="514.1309" y1="28.5496" x2="588.7793" y2="28.5496" gradientTransform="matrix(1 0 0 1 -578.3789 -0.4199)">
		<stop  offset="0" style="stop-color:#091B3B"/>
		<stop  offset="1" style="stop-color:#00B2B6"/>
	</linearGradient>
	<path fill="url(#SVGID_1_)" d="M-26.923-9.196c-20.581,0-37.325,16.744-37.325,37.326c0,20.581,16.744,37.325,37.325,37.325
		c20.582,0,37.323-16.744,37.323-37.325C10.403,7.548-6.342-9.196-26.923-9.196z M-26.923,63.058
		c-19.259,0-34.931-15.671-34.931-34.93c0-19.262,15.669-34.933,34.931-34.933c19.26,0,34.931,15.671,34.931,34.933
		C8.008,47.389-7.664,63.058-26.923,63.058z"/>
	
		<linearGradient id="SVGID_2_" gradientUnits="userSpaceOnUse" x1="519.708" y1="28.5481" x2="583.2041" y2="28.5481" gradientTransform="matrix(1 0 0 1 -578.3789 -0.4199)">
		<stop  offset="0" style="stop-color:#091B3B"/>
		<stop  offset="1" style="stop-color:#00B2B6"/>
	</linearGradient>
	<path fill="url(#SVGID_2_)" d="M-26.923-3.617c-17.506,0-31.748,14.241-31.748,31.746c0,17.504,14.242,31.745,31.748,31.745
		c17.505,0,31.748-14.241,31.748-31.745C4.825,10.624-9.418-3.617-26.923-3.617z M-26.923,56.808
		c-15.815,0-28.681-12.866-28.681-28.681c0-15.815,12.866-28.681,28.681-28.681S1.756,12.313,1.756,28.128
		C1.756,43.944-11.108,56.808-26.923,56.808z"/>
	
		<linearGradient id="SVGID_3_" gradientUnits="userSpaceOnUse" x1="525.4961" y1="28.5486" x2="577.417" y2="28.5486" gradientTransform="matrix(1 0 0 1 -578.3789 -0.4199)">
		<stop  offset="0" style="stop-color:#091B3B"/>
		<stop  offset="1" style="stop-color:#00B2B6"/>
	</linearGradient>
	<path fill="url(#SVGID_3_)" d="M-26.923,2.169c-14.313,0-25.96,11.646-25.96,25.961c0,14.313,11.646,25.958,25.96,25.958
		c14.316,0,25.961-11.645,25.961-25.958C-0.965,13.815-12.607,2.169-26.923,2.169 M-26.923,49.734
		c-11.913,0-21.602-9.693-21.602-21.604c0-11.914,9.688-21.607,21.602-21.607c11.914,0,21.605,9.693,21.605,21.607
		C-5.318,40.041-15.01,49.734-26.923,49.734"/>
	<path fill="#FFFFFF" d="M-26.923,54.481c-14.529,0-26.351-11.822-26.351-26.351c0-14.531,11.822-26.354,26.351-26.354
		c14.531,0,26.353,11.822,26.353,26.354C-0.57,42.659-12.392,54.481-26.923,54.481z M-26.923,2.562
		c-14.095,0-25.565,11.47-25.565,25.568c0,14.097,11.47,25.567,25.565,25.567c14.098,0,25.568-11.47,25.568-25.567
		C-1.357,14.032-12.825,2.562-26.923,2.562z M-26.923,50.126c-12.126,0-21.995-9.867-21.995-21.996
		c0-12.129,9.867-21.999,21.995-21.999c12.129,0,21.998,9.869,21.998,21.999C-4.925,40.257-14.794,50.126-26.923,50.126z
		 M-26.923,6.916c-11.693,0-21.21,9.516-21.21,21.212s9.517,21.211,21.21,21.211c11.696,0,21.213-9.515,21.213-21.211
		S-15.227,6.916-26.923,6.916z"/>
	<g>
		<path fill="#00B2B6" d="M-27.053,18.056c-5.48,0-9.937,4.458-9.937,9.937s4.456,9.938,9.937,9.938
			c5.481,0,9.937-4.458,9.937-9.938C-17.113,22.514-21.572,18.056-27.053,18.056 M-27.053,33.625c-3.105,0-5.63-2.526-5.63-5.63
			c0-3.106,2.525-5.633,5.63-5.633c3.107,0,5.632,2.527,5.632,5.633C-21.421,31.098-23.946,33.625-27.053,33.625"/>
	</g>
	<g>
		
			<linearGradient id="SVGID_4_" gradientUnits="userSpaceOnUse" x1="532.6514" y1="28.5481" x2="570.2617" y2="28.5481" gradientTransform="matrix(1 0 0 1 -578.3789 -0.4199)">
			<stop  offset="0" style="stop-color:#091B3B"/>
			<stop  offset="1" style="stop-color:#00B2B6"/>
		</linearGradient>
		<path fill="url(#SVGID_4_)" d="M-26.923,46.933c-10.368,0-18.805-8.435-18.805-18.805s8.437-18.806,18.805-18.806
			c10.369,0,18.806,8.436,18.806,18.806S-16.555,46.933-26.923,46.933z M-26.923,13.642c-7.987,0-14.485,6.499-14.485,14.486
			c0,7.987,6.5,14.486,14.485,14.486c7.989,0,14.488-6.501,14.488-14.486C-12.436,20.141-18.935,13.642-26.923,13.642z"/>
	</g>
	<g>
		<g>
			<path fill="#FFFFFF" d="M-25.483,31.613L-62.632,2.588l0.968-1.238c8.505-10.886,20.796-16.881,34.611-16.881h1.57V31.613
				L-25.483,31.613z M-58.201,2.063l29.577,23.107v-37.533C-40.291-11.945-50.691-6.871-58.201,2.063z"/>
		</g>
	</g>
	<g>
		<g>
			<path fill="#FFFFFF" d="M-69.497,39.801l-0.354-1.529c-3.126-13.545-0.373-25.966,8.187-36.921l0.964-1.239l37.207,29.069
				L-69.497,39.801z M-60.137,4.538c-6.892,9.442-9.238,20.021-6.982,31.492l36.503-8.427L-60.137,4.538z"/>
		</g>
	</g>
	<g>
		<g>
			<path fill="#FFFFFF" d="M-44.191,68.863l-1.424-0.663c-12.521-5.84-21.126-16.467-24.236-29.929l-0.352-1.531l45.935-10.603
				L-44.191,68.863z M-66.409,39.087C-63.378,50.36-56.094,59.354-45.7,64.66l15.858-34.016L-66.409,39.087z"/>
		</g>
	</g>
	<g>
		<g>
			<path fill="#FFFFFF" d="M-27.021,72.501c-6.218,0-12.473-1.447-18.594-4.301l-1.424-0.662l19.956-42.794l20.697,42.436
				l-1.412,0.688C-14.101,70.944-20.568,72.501-27.021,72.501z M-42.854,65.992c10.697,4.562,21.64,4.467,32.256-0.281
				l-16.424-33.672L-42.854,65.992z"/>
		</g>
	</g>
	<g>
		<g>
			<path fill="#FFFFFF" d="M-9.211,68.555l-20.666-42.371l46.113,9.803l-0.326,1.534C13.039,51.036,4.618,61.811-7.799,67.867
				L-9.211,68.555z M-24.23,30.598l16.454,33.733C2.525,58.844,9.647,49.721,12.483,38.4L-24.23,30.598z"/>
		</g>
	</g>
	<g>
		<g>
			<path fill="#FFFFFF" d="M15.583,39.06l-46.185-9.815L6.093-0.471l0.989,1.22c8.748,10.805,11.717,23.177,8.828,36.774
				L15.583,39.06z M-23.506,27.54l36.644,7.789c2.056-11.509-0.474-22.044-7.53-31.367L-23.506,27.54z"/>
		</g>
	</g>
	<g>
		<g>
			<path fill="#FFFFFF" d="M-28.624,31.684v-47.216h1.571c13.9,0,25.383,5.479,34.135,16.28l0.988,1.22L-28.624,31.684z
				 M-25.483-12.365v37.462L3.632,1.522C-4.018-7.319-13.797-11.984-25.483-12.365z"/>
		</g>
	</g>
	<g>
		<path fill="#FFFFFF" d="M-26.891,40.822c-7.023,0-12.74-5.714-12.74-12.741c0-7.025,5.717-12.739,12.74-12.739
			c7.025,0,12.741,5.713,12.741,12.739C-14.153,35.108-19.865,40.822-26.891,40.822 M-26.891,22.582
			c-3.033,0-5.499,2.468-5.499,5.499c0,3.032,2.466,5.496,5.499,5.496c3.031,0,5.5-2.464,5.5-5.496
			C-21.391,25.051-23.86,22.582-26.891,22.582"/>
		<path fill="#FFFFFF" d="M-26.891,41.607c-7.457,0-13.526-6.067-13.526-13.525c0-7.458,6.069-13.524,13.526-13.524
			c7.458,0,13.526,6.067,13.526,13.524C-13.366,35.539-19.432,41.607-26.891,41.607z M-26.891,16.127
			c-6.592,0-11.954,5.363-11.954,11.954c0,6.592,5.362,11.956,11.954,11.956c6.592,0,11.954-5.364,11.954-11.956
			C-14.937,21.49-20.3,16.127-26.891,16.127z M-26.891,34.365c-3.466,0-6.282-2.817-6.282-6.283c0-3.465,2.818-6.285,6.282-6.285
			c3.463,0,6.286,2.82,6.286,6.285C-20.606,31.548-23.428,34.365-26.891,34.365z M-26.891,23.368c-2.601,0-4.713,2.114-4.713,4.713
			c0,2.6,2.114,4.712,4.713,4.712c2.598,0,4.715-2.112,4.715-4.712C-22.178,25.482-24.293,23.368-26.891,23.368z"/>
	</g>
	<path fill="#091B3B" d="M44.714,39.201v-4.134c-1.766,3.159-4.97,4.464-8.176,4.507c-6.134,0-10.36-3.765-10.36-10.13V16.2h2.278
		v13.199c0,5.201,3.205,7.991,8.176,7.946c4.741-0.05,8.036-3.628,8.036-8.366V16.2h2.278v23H44.714L44.714,39.201z"/>
	<path fill="#091B3B" d="M55.076,16.251l0.095,4.087c1.44-3.113,4.694-4.319,7.621-4.319c1.72-0.046,3.393,0.415,4.924,1.346
		l-1.023,1.859c-1.207-0.746-2.553-1.068-3.901-1.068c-4.276,0.045-7.575,3.481-7.575,7.668v13.38H52.94v-22.95L55.076,16.251
		L55.076,16.251z"/>
	<path fill="#091B3B" d="M73.388,6.678v14.588c1.855-3.716,5.574-5.391,9.522-5.391c6.414,0,11.521,4.277,11.521,11.849
		c0,7.625-5.061,11.85-11.475,11.85c-3.904,0-7.668-1.948-9.571-5.433v5.061h-2.23V6.678H73.388L73.388,6.678z M73.431,27.678
		c0,5.717,3.998,9.668,9.387,9.668c5.159,0,9.385-3.255,9.385-9.622c0-6.458-4.226-9.664-9.385-9.664
		C77.521,18.061,73.431,21.964,73.431,27.678"/>
	<path fill="#091B3B" d="M122.077,16.253v22.946h-2.276v-4.877c-2.227,3.582-5.666,5.252-9.381,5.252
		c-6.412,0-11.665-4.832-11.665-11.85c0-7.016,5.251-11.751,11.665-11.751c3.715,0,7.478,1.718,9.381,5.294v-5.014H122.077
		L122.077,16.253z M101.031,27.725c0,5.764,4.185,9.622,9.389,9.622c12.778,0,12.778-19.193,0-19.193
		C105.215,18.154,101.031,21.963,101.031,27.725"/>
	<path fill="#091B3B" d="M130.49,16.251v4.087c1.762-3.159,4.973-4.465,8.178-4.508c6.136,0,10.36,3.762,10.36,10.133v13.24h-2.276
		V26.008c0-5.205-3.208-7.99-8.176-7.944c-4.742,0.045-8.039,3.622-8.039,8.364v12.776h-2.275v-22.95h2.228V16.251z"/>
	<path fill="#091B3B" d="M164.185,28.363c0-7.296,5.207-11.943,11.661-11.943c6.461,0,11.662,4.647,11.662,11.943
		c0,7.292-5.2,11.754-11.662,11.754C169.392,40.119,164.185,35.654,164.185,28.363 M185.277,28.363c0-5.946-4.225-9.803-9.433-9.803
		c-5.2,0-9.429,3.857-9.429,9.803c0,5.945,4.229,9.524,9.429,9.524C181.052,37.886,185.277,34.307,185.277,28.363"/>
	<path fill="#091B3B" d="M194.991,7.266v14.588c1.854-3.717,5.571-5.391,9.524-5.391c6.413,0,11.526,4.275,11.526,11.852
		c0,7.623-5.068,11.846-11.481,11.846c-3.903,0-7.665-1.954-9.569-5.436v5.065h-2.23V7.265L194.991,7.266L194.991,7.266z
		 M195.039,28.267c0,5.715,3.992,9.667,9.382,9.667c5.158,0,9.389-3.254,9.389-9.621c0-6.46-4.23-9.666-9.389-9.666
		C199.128,18.649,195.039,22.553,195.039,28.267"/>
	<path fill="#091B3B" d="M237.364,21.021c-2.321-2.045-4.6-2.415-7.152-2.415c-3.578-0.046-7.018,1.297-6.924,4.23
		c0.092,3.065,4.093,3.666,6.97,4.178c4.088,0.698,9.71,1.394,9.479,6.74c-0.142,5.062-5.392,6.407-9.434,6.407
		c-4.043,0-8.038-1.53-10.036-4.596l1.675-1.487c1.905,2.738,5.344,3.902,8.406,3.902c2.79,0,7.02-0.745,7.158-4.368
		c0.092-3.298-3.72-3.952-7.483-4.556c-4.458-0.741-8.871-1.58-8.919-6.18c-0.05-4.507,4.463-6.46,9.111-6.414
		c3.341,0,6.268,0.933,8.547,3.068L237.364,21.021z"/>
	<path fill="#091B3B" d="M243.499,28.316c0-6.877,5.204-11.852,11.664-11.852c6.459,0,12.218,3.95,11.339,12.92h-20.677
		c0.466,5.392,4.601,8.503,9.338,8.503c3.022,0,6.556-1.208,8.272-3.483l1.626,1.301c-2.23,2.926-6.229,4.412-9.898,4.412
		C248.706,40.119,243.499,35.612,243.499,28.316 M264.457,27.385c-0.046-5.668-3.766-8.825-9.294-8.825
		c-4.737,0-8.826,3.203-9.338,8.825H264.457z"/>
	<path fill="#091B3B" d="M274.541,16.837l0.088,4.09c1.44-3.112,4.694-4.32,7.621-4.32c1.72-0.05,3.391,0.415,4.922,1.346
		l-1.019,1.861c-1.206-0.746-2.554-1.07-3.903-1.07c-4.272,0.043-7.574,3.485-7.574,7.665v13.384h-2.276V16.838L274.541,16.837
		L274.541,16.837z"/>
	<polygon fill="#091B3B" points="289.873,16.837 292.379,16.837 300.743,37.143 309.104,16.837 311.617,16.837 302,39.792 
		299.49,39.792 	"/>
	<path fill="#091B3B" d="M337.45,16.836v22.956h-2.275v-4.879c-2.23,3.58-5.673,5.249-9.384,5.249
		c-6.411,0-11.665-4.831-11.665-11.845c0-7.018,5.254-11.759,11.665-11.759c3.711,0,7.479,1.72,9.384,5.298v-5.019h2.275V16.836z
		 M316.403,28.317c0,5.762,4.18,9.618,9.384,9.618c12.779,0,12.779-19.191,0-19.191C320.583,18.743,316.403,22.552,316.403,28.317"
		/>
	<path fill="#091B3B" d="M347.907,9.912v6.924h7.806v1.908h-7.806v13.983c0,3.119,0.648,5.302,4.228,5.302
		c1.118,0,2.37-0.371,3.53-0.931l0.79,1.857c-1.441,0.703-2.881,1.164-4.323,1.164c-4.882,0-6.457-2.884-6.457-7.39V18.744h-4.879
		v-1.907h4.879v-6.693L347.907,9.912z"/>
	<path fill="#091B3B" d="M359.891,28.363c0-7.296,5.205-11.943,11.667-11.943c6.457,0,11.662,4.647,11.662,11.943
		c0,7.292-5.202,11.754-11.662,11.754C365.096,40.119,359.891,35.654,359.891,28.363 M380.988,28.363
		c0-5.946-4.229-9.803-9.431-9.803c-5.204,0-9.43,3.857-9.43,9.803c0,5.945,4.226,9.524,9.43,9.524
		C376.759,37.886,380.988,34.307,380.988,28.363"/>
	<path fill="#091B3B" d="M390.608,16.837l0.092,4.09c1.441-3.112,4.693-4.32,7.622-4.32c1.716-0.05,3.391,0.415,4.924,1.346
		l-1.022,1.861c-1.204-0.746-2.555-1.07-3.904-1.07c-4.274,0.043-7.574,3.485-7.574,7.665v13.384h-2.276V16.838L390.608,16.837
		L390.608,16.837z"/>
	<polygon fill="#091B3B" points="427.732,16.837 413.743,49.36 411.328,49.36 415.562,39.516 406.357,16.837 408.82,16.837 
		414.163,30.407 416.861,37.052 419.507,30.362 425.271,16.837 	"/>
	<circle fill="#00B2B6" cx="-26.923" cy="28.128" r="4.246"/>
</g>
</svg>
