<?xml version="1.0" ?><!DOCTYPE svg  PUBLIC '-//W3C//DTD SVG 1.1//EN'  'http://www.w3.org/Graphics/SVG/1.1/DTD/svg11.dtd'><svg height="663.000" viewBox="-331.000 -331.000 663.000 663.000" width="663.000" xmlns="http://www.w3.org/2000/svg"><polyline fill="none" points="3.061616997868383e-15,-50.0 -52.06604869410697,-158.1162641482903 0.0,-266.2325282965806 116.99134946181881,-292.93504037133835 210.8111273579824,-218.11626414829038 210.81112735798246,-98.11626414829043 116.99134946181894,-23.29748792524238 1.4210854715202004e-13,-50.00000000000003" stroke="#00f" stroke-linecap="round" stroke-linejoin="round"/><polyline fill="none" points="-50.0,-6.123233995736766e-15 -158.1162641482903,52.066048694106954 -266.2325282965806,-1.4210854715202004e-14 -292.93504037133835,-116.99134946181883 -218.11626414829038,-210.8111273579824 -98.11626414829043,-210.81112735798246 -23.29748792524238,-116.99134946181894 -50.00000000000003,-1.4210854715202004e-13" stroke="#ffa500" stroke-linecap="round" stroke-linejoin="round"/><polyline fill="none" points="-9.184850993605149e-15,50.0 52.06604869410695,158.11626414829033 -4.263256414560601e-14,266.2325282965806 -116.99134946181887,292.93504037133835 -210.81112735798246,218.11626414829036 -210.81112735798249,98.11626414829038 -116.99134946181897,23.297487925242336 -1.7053025658242404e-13,49.999999999999986" stroke="#f00" stroke-linecap="round" stroke-linejoin="round"/><polyline fill="none" points="50.0,1.2246467991473532e-14 158.11626414829033,-52.06604869410693 266.2325282965806,6.394884621840902e-14 292.93504037133835,116.99134946181888 218.11626414829033,210.81112735798246 98.11626414829036,210.81112735798249 23.297487925242322,116.99134946181896 49.999999999999986,1.5631940186722204e-13" stroke="#a020f0" stroke-linecap="round" stroke-linejoin="round"/><polyline fill="none" points="1.4210854715202004e-13,-50.00000000000003 -93.81977789616344,-124.81877622304795 -93.81977789616354,-244.8187762230479 -8.526512829121202e-14,-319.637552446096 116.99134946181873,-292.9350403713384 169.05739815592582,-184.81877622304822 116.99134946181903,-76.7025120747579 2.8421709430404007e-13,-50.000000000000014" stroke="#00f" stroke-linecap="round" stroke-linejoin="round"/><polyline fill="none" points="-50.00000000000003,-1.4210854715202004e-13 -124.81877622304795,93.81977789616344 -244.8187762230479,93.81977789616354 -319.637552446096,8.526512829121202e-14 -292.9350403713384,-116.99134946181873 -184.81877622304822,-169.05739815592582 -76.7025120747579,-116.99134946181903 -50.000000000000014,-2.8421709430404007e-13" stroke="#ffa500" stroke-linecap="round" stroke-linejoin="round"/><polyline fill="none" points="-1.7053025658242404e-13,49.999999999999986 93.81977789616342,124.8187762230479 93.81977789616352,244.81877622304785 5.684341886080802e-14,319.6375524460959 -116.99134946181876,292.93504037133835 -169.05739815592585,184.81877622304816 -116.99134946181906,76.70251207475785 -3.126388037344441e-13,49.99999999999996" stroke="#f00" stroke-linecap="round" stroke-linejoin="round"/><polyline fill="none" points="49.999999999999986,1.5631940186722204e-13 124.81877622304792,-93.81977789616343 244.81877622304785,-93.81977789616352 319.6375524460959,-4.263256414560601e-14 292.93504037133835,116.99134946181876 184.81877622304816,169.05739815592582 76.70251207475785,116.99134946181901 49.99999999999997,2.7000623958883807e-13" stroke="#a020f0" stroke-linecap="round" stroke-linejoin="round"/><polyline fill="none" points="2.8421709430404007e-13,-50.000000000000014 -116.99134946181854,-76.70251207475755 -169.05739815592568,-184.8187762230477 -116.99134946181894,-292.935040371338 -2.4158453015843406e-13,-319.6375524460959 93.81977789616342,-244.81877622304813 93.81977789616367,-124.81877622304825 3.552713678800501e-13,-50.000000000000085" stroke="#00f" stroke-linecap="round" stroke-linejoin="round"/><polyline fill="none" points="-50.000000000000014,-2.8421709430404007e-13 -76.70251207475755,116.99134946181854 -184.8187762230477,169.05739815592568 -292.935040371338,116.99134946181894 -319.6375524460959,2.4158453015843406e-13 -244.81877622304813,-93.81977789616342 -124.81877622304825,-93.81977789616367 -50.000000000000085,-3.552713678800501e-13" stroke="#ffa500" stroke-linecap="round" stroke-linejoin="round"/><polyline fill="none" points="-3.126388037344441e-13,49.99999999999996 116.99134946181852,76.7025120747575 169.05739815592563,184.81877622304765 116.99134946181888,292.93504037133795 1.8474111129762605e-13,319.63755244609587 -93.81977789616347,244.81877622304808 -93.81977789616373,124.81877622304819 -4.121147867408581e-13,50.00000000000003" stroke="#f00" stroke-linecap="round" stroke-linejoin="round"/><polyline fill="none" points="49.99999999999997,2.7000623958883807e-13 76.70251207475751,-116.99134946181856 184.81877622304768,-169.05739815592568 292.935040371338,-116.99134946181894 319.6375524460959,-2.4158453015843406e-13 244.81877622304813,93.81977789616342 124.81877622304825,93.81977789616367 50.000000000000085,3.552713678800501e-13" stroke="#a020f0" stroke-linecap="round" stroke-linejoin="round"/><polyline fill="none" points="3.552713678800501e-13,-50.000000000000085 -116.9913494618183,-23.297487925242113 -210.81112735798197,-98.11626414828983 -210.8111273579823,-218.1162641482897 -116.991349461819,-292.9350403713379 -2.273736754432321e-13,-266.23252829658054 52.066048694106996,-158.11626414829055 4.121147867408581e-13,-50.00000000000024" stroke="#00f" stroke-linecap="round" stroke-linejoin="round"/><polyline fill="none" points="-50.000000000000085,-3.552713678800501e-13 -23.297487925242113,116.9913494618183 -98.11626414828983,210.81112735798197 -218.1162641482897,210.8111273579823 -292.9350403713379,116.991349461819 -266.23252829658054,2.273736754432321e-13 -158.11626414829055,-52.066048694106996 -50.00000000000024,-4.121147867408581e-13" stroke="#ffa500" stroke-linecap="round" stroke-linejoin="round"/><polyline fill="none" points="-4.121147867408581e-13,50.00000000000003 116.99134946181825,23.297487925242056 210.81112735798192,98.11626414828977 210.81112735798223,218.11626414828964 116.99134946181894,292.93504037133783 1.7053025658242404e-13,266.2325282965805 -52.06604869410705,158.1162641482905 -4.689582056016661e-13,50.000000000000185" stroke="#f00" stroke-linecap="round" stroke-linejoin="round"/><polyline fill="none" points="50.000000000000085,3.552713678800501e-13 23.297487925242113,-116.9913494618183 98.11626414828983,-210.81112735798197 218.1162641482897,-210.8111273579823 292.9350403713379,-116.991349461819 266.23252829658054,-2.273736754432321e-13 158.11626414829055,52.066048694106996 50.00000000000024,4.121147867408581e-13" stroke="#a020f0" stroke-linecap="round" stroke-linejoin="round"/><polyline fill="none" points="4.121147867408581e-13,-50.00000000000024 -93.8197778961628,24.818776223047976 -210.81112735798155,-1.883735851709332 -262.8771760520888,-109.99999999999929 -210.81112735798231,-218.1162641482896 -93.81977789616376,-244.8187762230477 -4.263256414560601e-14,-170.00000000000017 4.2366110619695974e-13,-50.00000000000037" stroke="#00f" stroke-linecap="round" stroke-linejoin="round"/><polyline fill="none" points="-50.00000000000024,-4.121147867408581e-13 24.818776223047976,93.8197778961628 -1.883735851709332,210.81112735798155 -109.99999999999929,262.8771760520888 -218.1162641482896,210.81112735798231 -244.8187762230477,93.81977789616376 -170.00000000000017,4.263256414560601e-14 -50.00000000000037,-4.2366110619695974e-13" stroke="#ffa500" stroke-linecap="round" stroke-linejoin="round"/><polyline fill="none" points="-4.689582056016661e-13,50.000000000000185 93.81977789616275,-24.818776223048033 210.8111273579815,1.8837358517092753 262.87717605208877,109.99999999999923 210.81112735798226,218.11626414828953 93.8197778961637,244.81877622304765 -1.4210854715202004e-14,170.0000000000001 -4.805045250577678e-13,50.00000000000031" stroke="#f00" stroke-linecap="round" stroke-linejoin="round"/><polyline fill="none" points="50.00000000000024,4.121147867408581e-13 -24.818776223047976,-93.8197778961628 1.883735851709332,-210.81112735798155 109.99999999999929,-262.8771760520888 218.1162641482896,-210.81112735798231 244.8187762230477,-93.81977789616376 170.00000000000017,-4.263256414560601e-14 50.00000000000037,4.2366110619695974e-13" stroke="#a020f0" stroke-linecap="round" stroke-linejoin="round"/><polyline fill="none" points="4.2366110619695974e-13,-50.00000000000037 -52.066048694106016,58.11626414828996 -169.05739815592452,84.81877622304813 -262.87717605208826,10.000000000000654 -262.87717605208877,-109.9999999999991 -169.05739815592574,-184.8187762230474 -52.066048694107025,-158.11626414829027 3.623767952376511e-13,-50.00000000000047" stroke="#00f" stroke-linecap="round" stroke-linejoin="round"/><polyline fill="none" points="-50.00000000000037,-4.2366110619695974e-13 58.11626414828996,52.066048694106016 84.81877622304813,169.05739815592452 10.000000000000654,262.87717605208826 -109.9999999999991,262.87717605208877 -184.8187762230474,169.05739815592574 -158.11626414829027,52.066048694107025 -50.00000000000047,-3.623767952376511e-13" stroke="#ffa500" stroke-linecap="round" stroke-linejoin="round"/><polyline fill="none" points="-4.805045250577678e-13,50.00000000000031 52.06604869410596,-58.116264148290014 169.05739815592446,-84.81877622304819 262.8771760520882,-10.00000000000071 262.8771760520887,109.99999999999905 169.05739815592568,184.81877622304734 52.06604869410697,158.1162641482902 -4.192202140984591e-13,50.00000000000041" stroke="#f00" stroke-linecap="round" stroke-linejoin="round"/><polyline fill="none" points="50.00000000000037,4.2366110619695974e-13 -58.11626414828996,-52.066048694106016 -84.81877622304813,-169.05739815592452 -10.000000000000654,-262.87717605208826 109.9999999999991,-262.87717605208877 184.8187762230474,-169.05739815592574 158.11626414829027,-52.066048694107025 50.00000000000047,3.623767952376511e-13" stroke="#a020f0" stroke-linecap="round" stroke-linejoin="round"/><polyline fill="none" points="3.623767952376511e-13,-50.00000000000047 9.618972285352356e-13,69.99999999999926 -93.81977789616201,144.8187762230476 -210.8111273579807,118.11626414829055 -262.87717605208815,10.000000000000796 -210.8111273579819,-98.11626414828952 -93.81977789616349,-124.81877622304783 2.8421709430404007e-13,-50.000000000000554" stroke="#00f" stroke-linecap="round" stroke-linejoin="round"/><polyline fill="none" points="-50.00000000000047,-3.623767952376511e-13 69.99999999999926,-9.618972285352356e-13 144.8187762230476,93.81977789616201 118.11626414829055,210.8111273579807 10.000000000000796,262.87717605208815 -98.11626414828952,210.8111273579819 -124.81877622304783,93.81977789616349 -50.000000000000554,-2.8421709430404007e-13" stroke="#ffa500" stroke-linecap="round" stroke-linejoin="round"/><polyline fill="none" points="-4.192202140984591e-13,50.00000000000041 -1.0187406473960436e-12,-69.99999999999932 93.81977789616195,-144.81877622304765 210.81112735798064,-118.11626414829061 262.8771760520881,-10.000000000000853 210.81112735798183,98.11626414828946 93.81977789616343,124.81877622304778 -3.410605131648481e-13,50.0000000000005" stroke="#f00" stroke-linecap="round" stroke-linejoin="round"/><polyline fill="none" points="50.00000000000047,3.623767952376511e-13 -69.99999999999926,9.618972285352356e-13 -144.8187762230476,-93.81977789616201 -118.11626414829055,-210.8111273579807 -10.000000000000796,-262.87717605208815 98.11626414828952,-210.8111273579819 124.81877622304783,-93.81977789616349 50.000000000000554,2.8421709430404007e-13" stroke="#a020f0" stroke-linecap="round" stroke-linejoin="round"/><polyline fill="none" points="2.8421709430404007e-13,-50.000000000000554 52.06604869410776,58.11626414828915 1.5774048733874224e-12,166.23252829657946 -116.99134946181677,192.93504037133783 -210.81112735798052,118.11626414829061 -210.8111273579813,-1.883735851709048 -116.99134946181847,-76.70251207475746 1.8474111129762605e-13,-50.00000000000059" stroke="#00f" stroke-linecap="round" stroke-linejoin="round"/><polyline fill="none" points="-50.000000000000554,-2.8421709430404007e-13 58.11626414828915,-52.06604869410776 166.23252829657946,-1.5774048733874224e-12 192.93504037133783,116.99134946181677 118.11626414829061,210.81112735798052 -1.883735851709048,210.8111273579813 -76.70251207475746,116.99134946181847 -50.00000000000059,-1.8474111129762605e-13" stroke="#ffa500" stroke-linecap="round" stroke-linejoin="round"/><polyline fill="none" points="-3.410605131648481e-13,50.0000000000005 -52.06604869410781,-58.116264148289204 -1.6342482922482304e-12,-166.23252829657952 116.99134946181671,-192.9350403713379 210.81112735798047,-118.11626414829067 210.81112735798123,1.883735851708991 116.99134946181842,76.70251207475741 -2.4158453015843406e-13,50.00000000000053" stroke="#f00" stroke-linecap="round" stroke-linejoin="round"/><polyline fill="none" points="50.000000000000554,2.8421709430404007e-13 -58.11626414828915,52.06604869410776 -166.23252829657946,1.5774048733874224e-12 -192.93504037133783,-116.99134946181677 -118.11626414829061,-210.81112735798052 1.883735851709048,-210.8111273579813 76.70251207475746,-116.99134946181847 50.00000000000059,1.8474111129762605e-13" stroke="#a020f0" stroke-linecap="round" stroke-linejoin="round"/><polyline fill="none" points="1.8474111129762605e-13,-50.00000000000059 93.81977789616398,24.818776223046576 93.81977789616481,144.81877622304623 2.0463630789890885e-12,219.63755244609467 -116.99134946181661,192.93504037133786 -169.0573981559242,84.81877622304829 -116.99134946181817,-23.297487925242038 7.105427357601002e-14,-50.00000000000054" stroke="#00f" stroke-linecap="round" stroke-linejoin="round"/><polyline fill="none" points="-50.00000000000059,-1.8474111129762605e-13 24.818776223046576,-93.81977789616398 144.81877622304623,-93.81977789616481 219.63755244609467,-2.0463630789890885e-12 192.93504037133786,116.99134946181661 84.81877622304829,169.0573981559242 -23.297487925242038,116.99134946181817 -50.00000000000054,-7.105427357601002e-14" stroke="#ffa500" stroke-linecap="round" stroke-linejoin="round"/><polyline fill="none" points="-2.4158453015843406e-13,50.00000000000053 -93.81977789616404,-24.818776223046633 -93.81977789616487,-144.81877622304629 -2.1032064978498966e-12,-219.63755244609473 116.99134946181655,-192.93504037133792 169.05739815592415,-84.81877622304835 116.99134946181812,23.29748792524198 -1.2789769243681803e-13,50.00000000000048" stroke="#f00" stroke-linecap="round" stroke-linejoin="round"/><polyline fill="none" points="50.00000000000059,1.8474111129762605e-13 -24.818776223046576,93.81977789616398 -144.81877622304623,93.81977789616481 -219.63755244609467,2.0463630789890885e-12 -192.93504037133786,-116.99134946181661 -84.81877622304829,-169.0573981559242 23.297487925242038,-116.99134946181817 50.00000000000054,7.105427357601002e-14" stroke="#a020f0" stroke-linecap="round" stroke-linejoin="round"/><polyline fill="none" points="7.105427357601002e-14,-50.00000000000054 116.99134946181871,-23.297487925243786 169.05739815592636,84.81877622304575 116.99134946182042,192.93504037133607 2.2168933355715126e-12,219.63755244609465 -93.81977789616163,144.81877622304765 -93.8197778961626,24.81877622304809 0.0,-50.00000000000044" stroke="#00f" stroke-linecap="round" stroke-linejoin="round"/><polyline fill="none" points="-50.00000000000054,-7.105427357601002e-14 -23.297487925243786,-116.99134946181871 84.81877622304575,-169.05739815592636 192.93504037133607,-116.99134946182042 219.63755244609465,-2.2168933355715126e-12 144.81877622304765,93.81977789616163 24.81877622304809,93.8197778961626 -50.00000000000044,0.0" stroke="#ffa500" stroke-linecap="round" stroke-linejoin="round"/><polyline fill="none" points="-1.2789769243681803e-13,50.00000000000048 -116.99134946181877,23.29748792524373 -169.05739815592642,-84.8187762230458 -116.99134946182048,-192.93504037133613 -2.2737367544323206e-12,-219.6375524460947 93.81977789616157,-144.8187762230477 93.81977789616255,-24.818776223048147 -5.684341886080802e-14,50.000000000000384" stroke="#f00" stroke-linecap="round" stroke-linejoin="round"/><polyline fill="none" points="50.00000000000054,7.105427357601002e-14 23.297487925243786,116.99134946181871 -84.81877622304575,169.05739815592636 -192.93504037133607,116.99134946182042 -219.63755244609465,2.2168933355715126e-12 -144.81877622304765,-93.81977789616163 -24.81877622304809,-93.8197778961626 50.00000000000044,0.0" stroke="#a020f0" stroke-linecap="round" stroke-linejoin="round"/><polyline fill="none" points="0.0,-50.00000000000044 116.99134946181816,-76.70251207475906 210.811127357982,-1.8837358517121316 210.81112735798305,118.11626414828739 116.99134946182052,192.93504037133593 1.9326762412674725e-12,166.23252829657935 -52.06604869410581,58.11626414829 -7.105427357601002e-14,-50.00000000000031" stroke="#00f" stroke-linecap="round" stroke-linejoin="round"/><polyline fill="none" points="-50.00000000000044,0.0 -76.70251207475906,-116.99134946181816 -1.8837358517121316,-210.811127357982 118.11626414828739,-210.81112735798305 192.93504037133593,-116.99134946182052 166.23252829657935,-1.9326762412674725e-12 58.11626414829,52.06604869410581 -50.00000000000031,7.105427357601002e-14" stroke="#ffa500" stroke-linecap="round" stroke-linejoin="round"/><polyline fill="none" points="-5.684341886080802e-14,50.000000000000384 -116.99134946181822,76.702512074759 -210.81112735798206,1.8837358517120748 -210.8111273579831,-118.11626414828744 -116.99134946182058,-192.935040371336 -1.9895196601282805e-12,-166.2325282965794 52.06604869410575,-58.11626414829006 1.4210854715202004e-14,50.000000000000256" stroke="#f00" stroke-linecap="round" stroke-linejoin="round"/><polyline fill="none" points="50.00000000000044,0.0 76.70251207475906,116.99134946181816 1.8837358517121316,210.811127357982 -118.11626414828739,210.81112735798305 -192.93504037133593,116.99134946182052 -166.23252829657935,1.9326762412674725e-12 -58.11626414829,-52.06604869410581 50.00000000000031,-7.105427357601002e-14" stroke="#a020f0" stroke-linecap="round" stroke-linejoin="round"/><polyline fill="none" points="-7.105427357601002e-14,-50.00000000000031 93.81977789616239,-124.8187762230489 210.81112735798098,-98.1162641482924 262.87717605208877,9.99999999999693 210.81112735798308,118.11626414828727 93.81977789616504,144.81877622304603 1.1226575225009583e-12,69.99999999999929 -1.0302869668521453e-13,-50.00000000000017" stroke="#00f" stroke-linecap="round" stroke-linejoin="round"/><polyline fill="none" points="-50.00000000000031,7.105427357601002e-14 -124.8187762230489,-93.81977789616239 -98.1162641482924,-210.81112735798098 9.99999999999693,-262.87717605208877 118.11626414828727,-210.81112735798308 144.81877622304603,-93.81977789616504 69.99999999999929,-1.1226575225009583e-12 -50.00000000000017,1.0302869668521453e-13" stroke="#ffa500" stroke-linecap="round" stroke-linejoin="round"/><polyline fill="none" points="1.4210854715202004e-14,50.000000000000256 -93.81977789616245,124.81877622304884 -210.81112735798104,98.11626414829234 -262.8771760520888,-9.999999999996987 -210.81112735798314,-118.11626414828733 -93.81977789616509,-144.8187762230461 -1.1795009413617663e-12,-69.99999999999935 4.618527782440651e-14,50.000000000000114" stroke="#f00" stroke-linecap="round" stroke-linejoin="round"/><polyline fill="none" points="50.00000000000031,-7.105427357601002e-14 124.8187762230489,93.81977789616239 98.1162641482924,210.81112735798098 -9.99999999999693,262.87717605208877 -118.11626414828727,210.81112735798308 -144.81877622304603,93.81977789616504 -69.99999999999929,1.1226575225009583e-12 50.00000000000017,-1.0302869668521453e-13" stroke="#a020f0" stroke-linecap="round" stroke-linejoin="round"/><polyline fill="none" points="-1.0302869668521453e-13,-50.00000000000017 52.06604869410553,-158.1162641482905 169.05739815592355,-184.81877622304933 262.87717605208746,-110.00000000000264 262.8771760520887,9.999999999996803 169.0573981559264,84.81877622304549 52.06604869410782,58.11626414828917 -9.947598300641403e-14,-50.000000000000036" stroke="#00f" stroke-linecap="round" stroke-linejoin="round"/><polyline fill="none" points="-50.00000000000017,1.0302869668521453e-13 -158.1162641482905,-52.06604869410553 -184.81877622304933,-169.05739815592355 -110.00000000000264,-262.87717605208746 9.999999999996803,-262.8771760520887 84.81877622304549,-169.0573981559264 58.11626414828917,-52.06604869410782 -50.000000000000036,9.947598300641403e-14" stroke="#ffa500" stroke-linecap="round" stroke-linejoin="round"/><polyline fill="none" points="4.618527782440651e-14,50.000000000000114 -52.06604869410559,158.11626414829044 -169.0573981559236,184.81877622304927 -262.8771760520875,110.00000000000259 -262.87717605208877,-9.99999999999686 -169.05739815592645,-84.81877622304555 -52.06604869410788,-58.116264148289225 4.263256414560601e-14,49.99999999999998" stroke="#f00" stroke-linecap="round" stroke-linejoin="round"/><polyline fill="none" points="50.00000000000017,-1.0302869668521453e-13 158.1162641482905,52.06604869410553 184.81877622304933,169.05739815592355 110.00000000000264,262.87717605208746 -9.999999999996803,262.8771760520887 -84.81877622304549,169.0573981559264 -58.11626414828917,52.06604869410782 50.000000000000036,-9.947598300641403e-14" stroke="#a020f0" stroke-linecap="round" stroke-linejoin="round"/><polyline fill="none" points="-9.947598300641403e-14,-50.000000000000036 -1.4317436125566019e-12,-169.99999999999946 93.81977789616084,-244.8187762230482 210.8111273579794,-218.11626414829192 262.87717605208735,-110.00000000000276 210.8111273579819,-1.8837358517124159 93.81977789616397,24.818776223046523 1.4210854715202004e-14,-50.000000000000014" stroke="#00f" stroke-linecap="round" stroke-linejoin="round"/><polyline fill="none" points="-50.000000000000036,9.947598300641403e-14 -169.99999999999946,1.4317436125566019e-12 -244.8187762230482,-93.81977789616084 -218.11626414829192,-210.8111273579794 -110.00000000000276,-262.87717605208735 -1.8837358517124159,-210.8111273579819 24.818776223046523,-93.81977789616397 -50.000000000000014,-1.4210854715202004e-14" stroke="#ffa500" stroke-linecap="round" stroke-linejoin="round"/><polyline fill="none" points="4.263256414560601e-14,49.99999999999998 1.3749001936957939e-12,169.9999999999994 -93.8197778961609,244.81877622304813 -210.81112735797944,218.11626414829186 -262.8771760520874,110.0000000000027 -210.81112735798195,1.883735851712359 -93.81977789616403,-24.81877622304658 -7.105427357601002e-14,49.99999999999996" stroke="#f00" stroke-linecap="round" stroke-linejoin="round"/><polyline fill="none" points="50.000000000000036,-9.947598300641403e-14 169.99999999999946,-1.4317436125566019e-12 244.8187762230482,93.81977789616084 218.11626414829192,210.8111273579794 110.00000000000276,262.87717605208735 1.8837358517124159,210.8111273579819 -24.818776223046523,93.81977789616397 50.000000000000014,1.4210854715202004e-14" stroke="#a020f0" stroke-linecap="round" stroke-linejoin="round"/><line fill="none" stroke="none" stroke-linecap="round" x1="0.0" x2="0.0" y1="0.0" y2="0.0"/><line fill="none" stroke="none" stroke-linecap="round" x1="0.0" x2="0.0" y1="0.0" y2="0.0"/><line fill="none" stroke="none" stroke-linecap="round" x1="0.0" x2="0.0" y1="0.0" y2="0.0"/><line fill="none" stroke="none" stroke-linecap="round" x1="0.0" x2="0.0" y1="0.0" y2="0.0"/><polygon fill="#00f" fill-rule="evenodd" points="1.4210854715202004e-14,-50.000000000000014 -4.99999999999988,-40.99999999999996 9.658940314238906e-14,-43.000000000000014 5.00000000000012,-41.00000000000007" stroke="#00f" stroke-linejoin="round"/><polygon fill="#ffa500" fill-rule="evenodd" points="-50.000000000000014,-1.4210854715202004e-14 -40.99999999999996,4.99999999999988 -43.000000000000014,-9.658940314238906e-14 -41.00000000000007,-5.00000000000012" stroke="#ffa500" stroke-linejoin="round"/><polygon fill="#f00" fill-rule="evenodd" points="-7.105427357601002e-14,49.99999999999996 4.999999999999823,40.9999999999999 -1.534328220031971e-13,42.99999999999996 -5.000000000000177,41.000000000000014" stroke="#f00" stroke-linejoin="round"/><polygon fill="#a020f0" fill-rule="evenodd" points="50.000000000000014,1.4210854715202004e-14 40.99999999999996,-4.99999999999988 43.000000000000014,9.658940314238906e-14 41.00000000000007,5.00000000000012" stroke="#a020f0" stroke-linejoin="round"/></svg>