<?xml version="1.0" ?><!DOCTYPE svg  PUBLIC '-//W3C//DTD SVG 1.1//EN'  'http://www.w3.org/Graphics/SVG/1.1/DTD/svg11.dtd'><svg height="396.000" viewBox="-202.000 -230.000 407.000 396.000" width="407.000" xmlns="http://www.w3.org/2000/svg"><polyline fill="none" points="19.225233918766378,-5.512747116339983 100.12693335626113,-64.2912723455873 181.0286327937559,-5.51274711633998 150.12693335626113,89.59290451317538 50.126933356261134,89.59290451317538 19.22523391876639,-5.512747116339966" stroke="#00f" stroke-linecap="round" stroke-linejoin="round"/><polyline fill="none" points="31.538463425279552,-21.272962188474402 62.4401628627743,-116.37861381798976 162.4401628627743,-116.37861381798976 193.341862300269,-21.272962188474423 112.44016286277429,37.50556304077288 31.53846342527956,-21.272962188474416" stroke="#00f" stroke-linecap="round" stroke-linejoin="round"/><polyline fill="none" points="32.23645335932957,-41.26077872885633 1.334753921834821,-136.36643035837167 82.23645335932954,-195.144955587619 163.13815279682427,-136.3664303583717 132.23645335932954,-41.26077872885635 32.23645335932957,-41.26077872885632" stroke="#00f" stroke-linecap="round" stroke-linejoin="round"/><polyline fill="none" points="21.052595289914635,-57.84153017995715 -59.84910414758011,-116.62005540920441 -28.94740471008541,-211.72570703871975 71.05259528991456,-211.7257070387198 101.95429472740935,-116.62005540920448 21.052595289914663,-57.84153017995715" stroke="#00f" stroke-linecap="round" stroke-linejoin="round"/><polyline fill="none" points="2.258742874196493,-64.6819330464705 -97.74125712580349,-64.68193304647045 -128.64295656329827,-159.78758467598578 -47.741257125803585,-218.56610990523313 33.160442311691185,-159.7875846759859 2.2587428741965283,-64.68193304647055" stroke="#00f" stroke-linecap="round" stroke-linejoin="round"/><polyline fill="none" points="-16.96649104456984,-59.16918593013055 -97.86819048206452,-0.3906607008831955 -178.7698899195593,-59.16918593013043 -147.86819048206462,-154.2748375596458 -47.86819048206465,-154.27483755964587 -16.966491044569835,-59.16918593013058" stroke="#00f" stroke-linecap="round" stroke-linejoin="round"/><polyline fill="none" points="-29.27972055108298,-43.40897085799614 -60.18141998857764,51.69668077151921 -160.1814199885776,51.6966807715193 -191.08311942607241,-43.408970857995996 -110.18141998857776,-102.18749608724335 -29.279720551083003,-43.40897085799613" stroke="#00f" stroke-linecap="round" stroke-linejoin="round"/><polyline fill="none" points="-29.977710485133002,-23.421154317614224 0.9239889523618139,71.68449731190107 -79.97771048513283,130.46302254114843 -160.8794099226276,71.68449731190123 -129.97771048513295,-23.42115431761411 -29.977710485133017,-23.421154317614217" stroke="#00f" stroke-linecap="round" stroke-linejoin="round"/><polyline fill="none" points="-18.79385241571807,-6.840402866513408 62.10784702177667,51.938122362733786 31.206147584282053,147.0437739922491 -68.79385241571788,147.0437739922492 -99.6955518532127,51.93812236273398 -18.793852415718106,-6.840402866513379" stroke="#00f" stroke-linecap="round" stroke-linejoin="round"/><polyline fill="none" points="5.3290705182007514e-14,-3.2862601528904634e-14 99.99999999999999,-1.4943601911454607e-13 130.9016994374948,95.10565162951508 50.00000000000021,153.88417685876243 -30.901699437494514,95.10565162951528 7.460698725481052e-14,-1.4210854715202004e-14" stroke="#00f" stroke-linecap="round" stroke-linejoin="round"/><line fill="none" stroke="none" stroke-linecap="round" x1="0.0" x2="0.0" y1="0.0" y2="0.0"/><polygon fill="#00f" fill-rule="evenodd" points="7.460698725481052e-14,-1.4210854715202004e-14 -8.999999999999932,-5.000000000000003 -6.999999999999925,-5.273559366969484e-15 -8.999999999999918,4.999999999999997" stroke="#00f" stroke-linejoin="round"/></svg>