<?xml version="1.0" ?><!DOCTYPE svg  PUBLIC '-//W3C//DTD SVG 1.1//EN'  'http://www.w3.org/Graphics/SVG/1.1/DTD/svg11.dtd'><svg height="469.000" viewBox="-234.000 -236.000 470.000 469.000" width="470.000" xmlns="http://www.w3.org/2000/svg"><polyline fill="none" points="0.0,0.0 88.54560256532099,-46.47231720437686 180.08640341785764,-6.219593330380121 205.69031242361237,90.44704953894181 146.07706387668986,170.7356576828301 46.136649821582836,174.18727157980095 -18.87375954529162,98.20275556534312 -2.842170943040401e-14,1.1368683772161603e-13" stroke="#f00" stroke-linecap="round" stroke-linejoin="round"/><polyline fill="none" points="-2.842170943040401e-14,1.1368683772161603e-13 56.80647467311547,-82.29838658936555 156.5682019032402,-89.19750102979813 224.1625663177157,-15.50216943136455 208.6896328386877,83.29352040151008 121.80083596618711,132.79439895986832 28.92521195365687,95.7252950553617 -1.0658141036401503e-14,1.9895196601282805e-13" stroke="#ff4500" stroke-linecap="round" stroke-linejoin="round"/><polyline fill="none" points="-1.0658141036401503e-14,1.9895196601282805e-13 12.05366802553215,-99.27088740980518 97.18211218396716,-151.7413361897061 191.28187772020482,-117.90002820633921 223.49392190005403,-23.230158608058716 169.5619184501343,60.97992988422253 70.0977659806151,71.31832306305975 4.263256414560601e-14,3.268496584496461e-13" stroke="#ffa500" stroke-linecap="round" stroke-linejoin="round"/><polyline fill="none" points="4.263256414560601e-14,3.268496584496461e-13 -35.46048870425371,-93.50162426854101 15.532771734759628,-179.52305990989112 114.58081613351584,-193.28841136860817 187.0984468478536,-124.43208823428071 178.47840885979195,-24.804306240078134 95.21176659107157,30.573182735975358 1.7053025658242404e-13,3.907985046680551e-13" stroke="#ffd700" stroke-linecap="round" stroke-linejoin="round"/><polyline fill="none" points="1.7053025658242404e-13,3.907985046680551e-13 -74.85107481711007,-66.31226582407882 -69.67493952868946,-166.17821409212434 11.63067041916348,-224.3967488642016 107.84097240352351,-197.1281260152526 146.50764669766568,-104.90617472907185 98.51389890168744,-17.1759053091276 2.8421709430404007e-13,3.588240815588506e-13" stroke="#ff0" stroke-linecap="round" stroke-linejoin="round"/><polyline fill="none" points="2.8421709430404007e-13,3.588240815588506e-13 -97.09418174260487,-23.931566428754987 -138.92096182016172,-114.76394209043008 -93.98392172344603,-204.09849546898644 3.8784308061492396,-224.6644857775805 80.97374828564735,-160.97530284409203 79.24768419510896,-60.99020044000726 3.410605131648481e-13,2.7711166694643907e-13" stroke="#adff2f" stroke-linecap="round" stroke-linejoin="round"/><polyline fill="none" points="3.410605131648481e-13,2.7711166694643907e-13 -97.09418174260458,23.93156642875647 -176.34186593771375,-37.05863401125031 -178.0679300282531,-137.04373641533505 -100.97261254875562,-200.73291934882423 -3.1102600191601937,-180.1669290402311 41.826780077556315,-90.83237566167521 3.694822225952521e-13,2.1316282072803006e-13" stroke="#0f0" stroke-linecap="round" stroke-linejoin="round"/><polyline fill="none" points="3.694822225952521e-13,2.1316282072803006e-13 -74.85107481710922,66.31226582408 -173.36497371879648,49.136360514952976 -221.3587215147755,-38.59390890499076 -182.69204722063424,-130.81586019117182 -86.48174523627456,-158.0844830401217 -5.1761352884211504,-99.86594826804527 3.9612757518625585e-13,5.684341886080802e-14" stroke="#2e8b57" stroke-linecap="round" stroke-linejoin="round"/><polyline fill="none" points="3.9612757518625585e-13,5.684341886080802e-14 -35.460488704252484,93.50162426854152 -130.67225529532345,124.07480700451734 -213.93889756404423,68.69731802846474 -222.5589355521068,-30.930463965737573 -150.04130483776981,-99.78678710006557 -50.993260439013696,-86.02143564134946 3.339550858072471e-13,1.4210854715202004e-14" stroke="#00f" stroke-linecap="round" stroke-linejoin="round"/><polyline fill="none" points="3.339550858072471e-13,1.4210854715202004e-14 12.0536680255333,99.27088740980503 -58.04409795508093,170.58921047286495 -157.50825042459996,160.25081729402868 -211.44025387452035,76.04072880174817 -179.2282096946721,-18.62914079653237 -85.12844415843503,-52.470448779900046 2.4158453015843406e-13,-9.947598300641403e-14" stroke="#8a2be2" stroke-linecap="round" stroke-linejoin="round"/><polyline fill="none" points="2.4158453015843406e-13,-9.947598300641403e-14 56.8064746731163,82.29838658936481 27.88126271946042,178.0236816447263 -64.99436129306918,215.09278554923372 -151.88315816556997,165.5919069908765 -167.3560916445989,66.79621715800235 -99.76172723012436,-6.899114440431646 8.526512829121202e-14,-6.483702463810914e-14" stroke="#a020f0" stroke-linecap="round" stroke-linejoin="round"/><polyline fill="none" points="8.526512829121202e-14,-6.483702463810914e-14 88.54560256532118,46.47231720437583 107.41936211061368,144.67507276971833 42.40895274374019,220.65958878417655 -57.53146131136653,217.2079748872067 -117.14470985828962,136.9193667433193 -91.54080085253592,40.25272387399745 -1.4210854715202004e-14,-4.263256414560601e-14" stroke="#ee82ee" stroke-linecap="round" stroke-linejoin="round"/><polyline fill="none" points="-1.4210854715202004e-14,-4.263256414560601e-14 99.9999999999996,-1.0307310560619953e-12 162.3489801858735,78.18314824680103 140.09688679024313,175.67593946498323 50.000000000002004,219.0643133767398 -40.096886790240006,175.67593946498508 -62.348980185872385,78.18314824680333 -1.1368683772161603e-13,-1.4210854715202004e-14" stroke="#d02090" stroke-linecap="round" stroke-linejoin="round"/><line fill="none" stroke="none" stroke-linecap="round" x1="0.0" x2="0.0" y1="0.0" y2="0.0"/><polygon fill="#d02090" fill-rule="evenodd" points="-1.1368683772161603e-13,-1.4210854715202004e-14 -9.000000000000167,-4.9999999999999165 -7.000000000000114,6.156186671546523e-14 -9.00000000000006,5.0000000000000835" stroke="#d02090" stroke-linejoin="round"/></svg>