<?xml version="1.0" ?><!DOCTYPE svg  PUBLIC '-//W3C//DTD SVG 1.1//EN'  'http://www.w3.org/Graphics/SVG/1.1/DTD/svg11.dtd'><svg height="610.000" viewBox="-345.000 -265.000 616.000 610.000" width="616.000" xmlns="http://www.w3.org/2000/svg"><polyline fill="none" points="92.0,-247.0 151.0,-247.0 202.0954988232819,-217.5 231.5954988232819,-166.40450117671813 231.59549882328193,-107.40450117671813 202.09549882328196,-56.309002353436235 151.00000000000009,-26.80900235343621 92.00000000000009,-26.809002353436178 40.90450117671819,-56.30900235343614 11.404501176718153,-107.404501176718 11.404501176718103,-166.404501176718 40.90450117671806,-217.4999999999999 91.99999999999991,-246.99999999999994" stroke="#f00" stroke-linecap="round" stroke-linejoin="round" stroke-width="4.0"/><polyline fill="none" points="83.0,48.0 175.0,47.9999999999999 240.05382386916244,113.0538238691622 240.05382386916256,205.05382386916222 175.00000000000028,270.10764773832466 83.00000000000028,270.1076477383248 17.946176130837813,205.0538238691625 17.94617613083767,113.0538238691625 82.99999999999993,48.000000000000014" stroke="#0f0" stroke-linecap="round" stroke-linejoin="round"/><polyline fill="none" points="-176.0,-103.0 -85.0,-103.00000000000016 -6.1916882556160004,-57.500000000000306 39.30831174438416,21.308311744383523 39.308311744384355,112.30831174438353 -6.191688255615475,191.11662348876754 -84.99999999999929,236.61662348876774 -175.9999999999993,236.61662348876797 -254.80831174438333,191.11662348876817 -300.30831174438356,112.30831174438435 -300.3083117443838,21.308311744384355 -254.808311744384,-57.49999999999969 -176.00000000000023,-102.99999999999991" stroke="#f00" stroke-linecap="round" stroke-linejoin="round"/><polyline fill="none" points="76.0,-174.0 171.0,-174.00000000000028 218.50000000000026,-91.72758664047875 171.0000000000005,-9.455173280956913 76.0000000000005,-9.455173280956597 28.5000000000002,-91.72758664047814 75.99999999999991,-174.0" stroke="#ffd700" stroke-linecap="round" stroke-linejoin="round" stroke-width="7.0"/><polyline fill="none" points="147.0,-40.0 197.0,-40.000000000000185 172.00000000000017,3.301270189221853 146.99999999999997,-39.999999999999986" stroke="#00f" stroke-linecap="round" stroke-linejoin="round" stroke-width="3.0"/><polyline fill="none" points="-279.0,-22.0 -207.99999999999997,-22.000000000000316 -157.79541853575483,28.20458146424436 -157.7954185357545,99.20458146424438 -207.99999999999915,149.4091629284895 -278.9999999999992,149.40916292848985 -329.20458146424437,99.2045814642452 -329.2045814642447,28.204581464245166 -279.00000000000006,-21.99999999999998" stroke="#f00" stroke-linecap="round" stroke-linejoin="round" stroke-width="6.0"/><polyline fill="none" points="-48.0,-35.0 26.00000000000003,-35.00000000000038 78.32590180780484,17.325901807803895 78.32590180780522,91.32590180780392 26.00000000000096,143.65180361560874 -47.99999999999907,143.65180361560914 -100.32590180780389,91.32590180780488 -100.3259018078043,17.325901807804854 -48.00000000000005,-34.99999999999998" stroke="#ffa500" stroke-linecap="round" stroke-linejoin="round"/><polyline fill="none" points="3.0,-32.0 95.00000000000004,-32.00000000000052 152.36106177100396,39.928496387057926 131.88913584702354,129.62186430778584 49.00000000000118,169.5391683066017 -33.88913584702166,129.62186430778684 -54.36106177100315,39.928496387059155 2.9999999999999005,-31.99999999999997" stroke="#2e8b57" stroke-linecap="round" stroke-linejoin="round" stroke-width="3.0"/><polyline fill="none" points="-50.0,-90.0 44.000000000000014,-90.00000000000061 123.0778320861314,-39.17976315917494 162.12684330830928,46.32564440414956 148.74924851062107,139.36885994095735 87.19233951976473,210.40931993025805 -2.9999999999978684,236.89218027335303 -93.19233951976081,210.40931993025924 -154.7492485106181,139.36885994095937 -168.1268433083075,46.325644404151774 -129.07783208613074,-39.17976315917322 -50.00000000000004,-89.99999999999991" stroke="#00f" stroke-linecap="round" stroke-linejoin="round" stroke-width="2.0"/><polyline fill="none" points="26.0,-44.0 119.0,-44.00000000000062 119.00000000000063,48.99999999999938 26.000000000000625,49.000000000000014 25.99999999999999,-43.999999999999986" stroke="#ff0" stroke-linecap="round" stroke-linejoin="round" stroke-width="3.0"/><polyline fill="none" points="-217.0,-227.0 -148.0,-227.00000000000048 -147.99999999999952,-158.00000000000048 -216.99999999999952,-158.0 -217.0,-227.0" stroke="#a020f0" stroke-linecap="round" stroke-linejoin="round" stroke-width="5.0"/><polyline fill="none" points="-212.0,-232.0 -161.0,-232.00000000000037 -119.74013328687747,-202.02295213308454 -103.98026657375479,-153.51906980203182 -119.74013328687676,-105.01518747097887 -160.99999999999886,-75.03813960406244 -211.99999999999886,-75.03813960406207 -253.25986671312143,-105.0151874709779 -269.0197334262441,-153.51906980203063 -253.25986671312214,-202.0229521330836 -212.00000000000003,-232.00000000000006" stroke="#8a2be2" stroke-linecap="round" stroke-linejoin="round" stroke-width="4.0"/><polyline fill="none" points="-260.0,108.0 -203.99999999999997,107.99999999999959 -164.402020253553,147.59797974644596 -164.40202025355256,203.597979746446 -203.99999999999895,243.19595949289297 -259.999999999999,243.1959594928934 -299.59797974644596,203.59797974644704 -299.5979797464464,147.597979746447 -260.00000000000006,108.00000000000001" stroke="#ffa500" stroke-linecap="round" stroke-linejoin="round" stroke-width="5.0"/><polyline fill="none" points="-266.0,-250.0 -209.99999999999997,-250.00000000000045 -164.69504831500262,-217.08402587162232 -147.39009663000513,-163.82486095909383 -164.69504831500177,-110.56569604656505 -209.99999999999858,-77.64972191818617 -265.99999999999864,-77.64972191818572 -311.30495168499596,-110.56569604656386 -328.60990336999345,-163.82486095909235 -311.3049516849968,-217.08402587162112 -266.0,-250.0" stroke="#ee82ee" stroke-linecap="round" stroke-linejoin="round" stroke-width="4.0"/><polyline fill="none" points="41.0,-184.0 138.00000000000006,-184.00000000000077 167.9746484543707,-91.74751791937106 89.50000000000124,-34.732348447000525 11.025351545630855,-91.74751791936981 41.00000000000003,-183.99999999999997" stroke="#2e8b57" stroke-linecap="round" stroke-linejoin="round" stroke-width="3.0"/><polyline fill="none" points="61.0,-226.0 129.0,-226.00000000000054 129.00000000000054,-158.0000000000005 61.000000000000526,-157.99999999999994 60.999999999999964,-225.99999999999994" stroke="#8a2be2" stroke-linecap="round" stroke-linejoin="round" stroke-width="7.0"/><polyline fill="none" points="143.0,-161.0 217.0,-161.00000000000063 254.00000000000054,-96.91412011995246 217.00000000000108,-32.82824023990365 143.00000000000105,-32.828240239903 106.00000000000047,-96.91412011995115 142.99999999999991,-160.99999999999997" stroke="#a020f0" stroke-linecap="round" stroke-linejoin="round" stroke-width="6.0"/><polyline fill="none" points="-16.0,51.0 60.00000000000003,50.99999999999931 22.000000000000625,116.81793068761704 -16.000000000000036,51.00000000000003" stroke="#2e8b57" stroke-linecap="round" stroke-linejoin="round" stroke-width="4.0"/><polyline fill="none" points="75.0,-194.0 158.00000000000006,-194.00000000000082 199.5000000000008,-122.11989148589281 158.0000000000015,-50.23978297178394 75.00000000000146,-50.23978297178308 33.50000000000069,-122.11989148589109 74.99999999999994,-193.99999999999997" stroke="#ff0" stroke-linecap="round" stroke-linejoin="round"/><polyline fill="none" points="-34.0,52.0 64.00000000000004,51.99999999999894 139.07235542566062,114.99318574927901 156.08987683702088,211.50434554447526 107.08987683702182,296.37483511535083 15.00000000000314,329.89280916126745 -77.0898768370163,296.37483511535294 -126.0898768370173,211.5043455444785 -109.07235542565925,114.99318574928186 -34.000000000000114,52.00000000000009" stroke="#ee82ee" stroke-linecap="round" stroke-linejoin="round" stroke-width="4.0"/><line fill="none" stroke="none" stroke-linecap="round" stroke-width="4.0" x1="0.0" x2="0.0" y1="0.0" y2="0.0"/><polygon fill="#ee82ee" fill-rule="evenodd" points="-34.000000000000114,52.00000000000009 -43.00000000000017,47.0000000000002 -41.000000000000114,52.00000000000018 -43.00000000000006,57.0000000000002" stroke="#ee82ee" stroke-linejoin="round"/></svg>