<?xml version="1.0" encoding="utf-8"?>
<!-- Generator: Adobe Illustrator 15.1.0, SVG Export Plug-In . SVG Version: 6.00 Build 0)  -->
<!DOCTYPE svg PUBLIC "-//W3C//DTD SVG 1.1//EN" "http://www.w3.org/Graphics/SVG/1.1/DTD/svg11.dtd">
<svg version="1.1" id="Layer_1" xmlns="http://www.w3.org/2000/svg" xmlns:xlink="http://www.w3.org/1999/xlink" x="0px" y="0px"
	 width="663px" height="663px" viewBox="0 0 663 663" enable-background="new 0 0 663 663" xml:space="preserve">
<polyline fill="none" stroke="#0000FF" stroke-linecap="round" stroke-linejoin="round" points="330.5,279.362 278.434,171.246 
	330.5,63.13 447.491,36.427 541.311,111.246 541.311,231.246 447.491,306.065 330.5,279.362 "/>
<polyline fill="none" stroke="#FFA500" stroke-linecap="round" stroke-linejoin="round" points="280.5,329.362 172.384,381.429 
	64.268,329.362 37.565,212.371 112.384,118.551 232.384,118.551 307.203,212.371 280.5,329.362 "/>
<polyline fill="none" stroke="#FF0000" stroke-linecap="round" stroke-linejoin="round" points="330.5,379.362 382.566,487.479 
	330.5,595.595 213.509,622.298 119.689,547.479 119.689,427.479 213.509,352.659 330.5,379.362 "/>
<polyline fill="none" stroke="#A020F0" stroke-linecap="round" stroke-linejoin="round" points="380.5,329.362 488.616,277.296 
	596.732,329.362 623.436,446.354 548.616,540.173 428.616,540.173 353.797,446.354 380.5,329.362 "/>
<polyline fill="none" stroke="#0000FF" stroke-linecap="round" stroke-linejoin="round" points="330.5,279.362 236.68,204.543 
	236.68,84.543 330.5,9.725 447.491,36.427 499.558,144.543 447.491,252.66 330.5,279.362 "/>
<polyline fill="none" stroke="#FFA500" stroke-linecap="round" stroke-linejoin="round" points="280.5,329.362 205.681,423.183 
	85.681,423.183 10.862,329.362 37.565,212.371 145.681,160.305 253.797,212.371 280.5,329.362 "/>
<polyline fill="none" stroke="#FF0000" stroke-linecap="round" stroke-linejoin="round" points="330.5,379.362 424.32,454.181 
	424.32,574.181 330.5,649 213.509,622.298 161.442,514.181 213.509,406.065 330.5,379.362 "/>
<polyline fill="none" stroke="#A020F0" stroke-linecap="round" stroke-linejoin="round" points="380.5,329.362 455.318,235.542 
	575.318,235.542 650.138,329.362 623.436,446.354 515.318,498.42 407.203,446.354 380.5,329.362 "/>
<polyline fill="none" stroke="#0000FF" stroke-linecap="round" stroke-linejoin="round" points="330.5,279.362 213.509,252.66 
	161.442,144.543 213.509,36.427 330.5,9.725 424.32,84.543 424.32,204.543 330.5,279.362 "/>
<polyline fill="none" stroke="#FFA500" stroke-linecap="round" stroke-linejoin="round" points="280.5,329.362 253.797,446.354 
	145.681,498.42 37.565,446.354 10.862,329.362 85.681,235.542 205.681,235.542 280.5,329.362 "/>
<polyline fill="none" stroke="#FF0000" stroke-linecap="round" stroke-linejoin="round" points="330.5,379.362 447.491,406.065 
	499.558,514.181 447.491,622.298 330.5,649 236.68,574.181 236.68,454.181 330.5,379.362 "/>
<polyline fill="none" stroke="#A020F0" stroke-linecap="round" stroke-linejoin="round" points="380.5,329.362 407.203,212.371 
	515.318,160.305 623.436,212.371 650.138,329.362 575.318,423.183 455.318,423.183 380.5,329.362 "/>
<polyline fill="none" stroke="#0000FF" stroke-linecap="round" stroke-linejoin="round" points="330.5,279.362 213.509,306.065 
	119.689,231.246 119.689,111.246 213.509,36.427 330.5,63.13 382.566,171.246 330.5,279.362 "/>
<polyline fill="none" stroke="#FFA500" stroke-linecap="round" stroke-linejoin="round" points="280.5,329.362 307.203,446.354 
	232.384,540.173 112.384,540.173 37.565,446.354 64.268,329.362 172.384,277.296 280.5,329.362 "/>
<polyline fill="none" stroke="#FF0000" stroke-linecap="round" stroke-linejoin="round" points="330.5,379.362 447.491,352.659 
	541.311,427.479 541.311,547.479 447.491,622.298 330.5,595.595 278.434,487.479 330.5,379.362 "/>
<polyline fill="none" stroke="#A020F0" stroke-linecap="round" stroke-linejoin="round" points="380.5,329.362 353.797,212.371 
	428.616,118.551 548.616,118.551 623.436,212.371 596.732,329.362 488.616,381.429 380.5,329.362 "/>
<polyline fill="none" stroke="#0000FF" stroke-linecap="round" stroke-linejoin="round" points="330.5,279.362 236.68,354.181 
	119.689,327.479 67.623,219.362 119.689,111.246 236.68,84.543 330.5,159.362 330.5,279.362 "/>
<polyline fill="none" stroke="#FFA500" stroke-linecap="round" stroke-linejoin="round" points="280.5,329.362 355.318,423.183 
	328.616,540.173 220.5,592.239 112.384,540.173 85.681,423.183 160.5,329.362 280.5,329.362 "/>
<polyline fill="none" stroke="#FF0000" stroke-linecap="round" stroke-linejoin="round" points="330.5,379.362 424.32,304.543 
	541.311,331.246 593.377,439.362 541.311,547.479 424.32,574.181 330.5,499.362 330.5,379.362 "/>
<polyline fill="none" stroke="#A020F0" stroke-linecap="round" stroke-linejoin="round" points="380.5,329.362 305.681,235.542 
	332.384,118.551 440.5,66.485 548.616,118.551 575.318,235.542 500.5,329.362 380.5,329.362 "/>
<polyline fill="none" stroke="#0000FF" stroke-linecap="round" stroke-linejoin="round" points="330.5,279.362 278.434,387.479 
	161.442,414.181 67.623,339.362 67.623,219.362 161.442,144.543 278.434,171.246 330.5,279.362 "/>
<polyline fill="none" stroke="#FFA500" stroke-linecap="round" stroke-linejoin="round" points="280.5,329.362 388.616,381.429 
	415.318,498.42 340.5,592.239 220.5,592.239 145.681,498.42 172.384,381.429 280.5,329.362 "/>
<polyline fill="none" stroke="#FF0000" stroke-linecap="round" stroke-linejoin="round" points="330.5,379.362 382.566,271.246 
	499.558,244.543 593.377,319.362 593.377,439.362 499.558,514.181 382.566,487.479 330.5,379.362 "/>
<polyline fill="none" stroke="#A020F0" stroke-linecap="round" stroke-linejoin="round" points="380.5,329.362 272.384,277.296 
	245.681,160.305 320.5,66.485 440.5,66.485 515.318,160.305 488.616,277.296 380.5,329.362 "/>
<polyline fill="none" stroke="#0000FF" stroke-linecap="round" stroke-linejoin="round" points="330.5,279.362 330.5,399.362 
	236.68,474.181 119.689,447.479 67.623,339.362 119.689,231.246 236.68,204.543 330.5,279.362 "/>
<polyline fill="none" stroke="#FFA500" stroke-linecap="round" stroke-linejoin="round" points="280.5,329.362 400.5,329.362 
	475.318,423.183 448.616,540.173 340.5,592.239 232.384,540.173 205.681,423.183 280.5,329.362 "/>
<polyline fill="none" stroke="#FF0000" stroke-linecap="round" stroke-linejoin="round" points="330.5,379.362 330.5,259.362 
	424.32,184.543 541.311,211.246 593.377,319.362 541.311,427.479 424.32,454.181 330.5,379.362 "/>
<polyline fill="none" stroke="#A020F0" stroke-linecap="round" stroke-linejoin="round" points="380.5,329.362 260.5,329.362 
	185.681,235.542 212.384,118.551 320.5,66.485 428.616,118.551 455.318,235.542 380.5,329.362 "/>
<polyline fill="none" stroke="#0000FF" stroke-linecap="round" stroke-linejoin="round" points="330.5,279.362 382.566,387.479 
	330.5,495.595 213.509,522.298 119.689,447.479 119.689,327.479 213.509,252.66 330.5,279.362 "/>
<polyline fill="none" stroke="#FFA500" stroke-linecap="round" stroke-linejoin="round" points="280.5,329.362 388.616,277.296 
	496.732,329.362 523.436,446.354 448.616,540.173 328.616,540.173 253.797,446.354 280.5,329.362 "/>
<polyline fill="none" stroke="#FF0000" stroke-linecap="round" stroke-linejoin="round" points="330.5,379.362 278.434,271.246 
	330.5,163.13 447.491,136.427 541.311,211.246 541.311,331.246 447.491,406.065 330.5,379.362 "/>
<polyline fill="none" stroke="#A020F0" stroke-linecap="round" stroke-linejoin="round" points="380.5,329.362 272.384,381.429 
	164.268,329.362 137.565,212.371 212.384,118.551 332.384,118.551 407.203,212.371 380.5,329.362 "/>
<polyline fill="none" stroke="#0000FF" stroke-linecap="round" stroke-linejoin="round" points="330.5,279.362 424.32,354.181 
	424.32,474.181 330.5,549 213.509,522.298 161.442,414.181 213.509,306.065 330.5,279.362 "/>
<polyline fill="none" stroke="#FFA500" stroke-linecap="round" stroke-linejoin="round" points="280.5,329.362 355.318,235.542 
	475.318,235.542 550.138,329.362 523.436,446.354 415.318,498.42 307.203,446.354 280.5,329.362 "/>
<polyline fill="none" stroke="#FF0000" stroke-linecap="round" stroke-linejoin="round" points="330.5,379.362 236.68,304.543 
	236.68,184.543 330.5,109.725 447.491,136.427 499.558,244.543 447.491,352.659 330.5,379.362 "/>
<polyline fill="none" stroke="#A020F0" stroke-linecap="round" stroke-linejoin="round" points="380.5,329.362 305.681,423.183 
	185.681,423.183 110.862,329.362 137.565,212.371 245.681,160.305 353.797,212.371 380.5,329.362 "/>
<polyline fill="none" stroke="#0000FF" stroke-linecap="round" stroke-linejoin="round" points="330.5,279.362 447.491,306.065 
	499.558,414.181 447.491,522.298 330.5,549 236.68,474.181 236.68,354.181 330.5,279.362 "/>
<polyline fill="none" stroke="#FFA500" stroke-linecap="round" stroke-linejoin="round" points="280.5,329.362 307.203,212.371 
	415.318,160.305 523.436,212.371 550.138,329.362 475.318,423.183 355.318,423.183 280.5,329.362 "/>
<polyline fill="none" stroke="#FF0000" stroke-linecap="round" stroke-linejoin="round" points="330.5,379.362 213.509,352.659 
	161.442,244.543 213.509,136.427 330.5,109.725 424.32,184.543 424.32,304.543 330.5,379.362 "/>
<polyline fill="none" stroke="#A020F0" stroke-linecap="round" stroke-linejoin="round" points="380.5,329.362 353.797,446.354 
	245.681,498.42 137.565,446.354 110.862,329.362 185.681,235.542 305.681,235.542 380.5,329.362 "/>
<polyline fill="none" stroke="#0000FF" stroke-linecap="round" stroke-linejoin="round" points="330.5,279.362 447.491,252.66 
	541.311,327.479 541.311,447.479 447.491,522.298 330.5,495.595 278.434,387.479 330.5,279.362 "/>
<polyline fill="none" stroke="#FFA500" stroke-linecap="round" stroke-linejoin="round" points="280.5,329.362 253.797,212.371 
	328.616,118.551 448.616,118.551 523.436,212.371 496.732,329.362 388.616,381.429 280.5,329.362 "/>
<polyline fill="none" stroke="#FF0000" stroke-linecap="round" stroke-linejoin="round" points="330.5,379.362 213.509,406.065 
	119.689,331.246 119.689,211.246 213.509,136.427 330.5,163.13 382.566,271.246 330.5,379.362 "/>
<polyline fill="none" stroke="#A020F0" stroke-linecap="round" stroke-linejoin="round" points="380.5,329.362 407.203,446.354 
	332.384,540.173 212.384,540.173 137.565,446.354 164.268,329.362 272.384,277.296 380.5,329.362 "/>
<polyline fill="none" stroke="#0000FF" stroke-linecap="round" stroke-linejoin="round" points="330.5,279.362 424.32,204.543 
	541.311,231.246 593.377,339.362 541.311,447.479 424.32,474.181 330.5,399.362 330.5,279.362 "/>
<polyline fill="none" stroke="#FFA500" stroke-linecap="round" stroke-linejoin="round" points="280.5,329.362 205.681,235.542 
	232.384,118.551 340.5,66.485 448.616,118.551 475.318,235.542 400.5,329.362 280.5,329.362 "/>
<polyline fill="none" stroke="#FF0000" stroke-linecap="round" stroke-linejoin="round" points="330.5,379.362 236.68,454.181 
	119.689,427.479 67.623,319.362 119.689,211.246 236.68,184.543 330.5,259.362 330.5,379.362 "/>
<polyline fill="none" stroke="#A020F0" stroke-linecap="round" stroke-linejoin="round" points="380.5,329.362 455.318,423.183 
	428.616,540.173 320.5,592.239 212.384,540.173 185.681,423.183 260.5,329.362 380.5,329.362 "/>
<polyline fill="none" stroke="#0000FF" stroke-linecap="round" stroke-linejoin="round" points="330.5,279.362 382.566,171.246 
	499.558,144.543 593.377,219.362 593.377,339.362 499.558,414.181 382.566,387.479 330.5,279.362 "/>
<polyline fill="none" stroke="#FFA500" stroke-linecap="round" stroke-linejoin="round" points="280.5,329.362 172.384,277.296 
	145.681,160.305 220.5,66.485 340.5,66.485 415.318,160.305 388.616,277.296 280.5,329.362 "/>
<polyline fill="none" stroke="#FF0000" stroke-linecap="round" stroke-linejoin="round" points="330.5,379.362 278.434,487.479 
	161.442,514.181 67.623,439.362 67.623,319.362 161.442,244.543 278.434,271.246 330.5,379.362 "/>
<polyline fill="none" stroke="#A020F0" stroke-linecap="round" stroke-linejoin="round" points="380.5,329.362 488.616,381.429 
	515.318,498.42 440.5,592.239 320.5,592.239 245.681,498.42 272.384,381.429 380.5,329.362 "/>
<polyline fill="none" stroke="#0000FF" stroke-linecap="round" stroke-linejoin="round" points="330.5,279.362 330.5,159.362 
	424.32,84.543 541.311,111.246 593.377,219.362 541.311,327.479 424.32,354.181 330.5,279.362 "/>
<polyline fill="none" stroke="#FFA500" stroke-linecap="round" stroke-linejoin="round" points="280.5,329.362 160.5,329.362 
	85.681,235.542 112.384,118.551 220.5,66.485 328.616,118.551 355.318,235.542 280.5,329.362 "/>
<polyline fill="none" stroke="#FF0000" stroke-linecap="round" stroke-linejoin="round" points="330.5,379.362 330.5,499.362 
	236.68,574.181 119.689,547.479 67.623,439.362 119.689,331.246 236.68,304.543 330.5,379.362 "/>
<polyline fill="none" stroke="#A020F0" stroke-linecap="round" stroke-linejoin="round" points="380.5,329.362 500.5,329.362 
	575.318,423.183 548.616,540.173 440.5,592.239 332.384,540.173 305.681,423.183 380.5,329.362 "/>
<line fill="none" x1="330.5" y1="329.362" x2="330.5" y2="329.362"/>
<line fill="none" x1="330.5" y1="329.362" x2="330.5" y2="329.362"/>
<line fill="none" x1="330.5" y1="329.362" x2="330.5" y2="329.362"/>
<line fill="none" x1="330.5" y1="329.362" x2="330.5" y2="329.362"/>
<polygon fill="#0000FF" stroke="#0000FF" stroke-linejoin="round" points="330.5,279.362 325.5,288.362 330.5,286.362 
	335.5,288.362 "/>
<polygon fill="#FFA500" stroke="#FFA500" stroke-linejoin="round" points="280.5,329.362 289.5,334.362 287.5,329.362 
	289.5,324.362 "/>
<polygon fill="#FF0000" stroke="#FF0000" stroke-linejoin="round" points="330.5,379.362 335.5,370.362 330.5,372.362 
	325.5,370.362 "/>
<polygon fill="#A020F0" stroke="#A020F0" stroke-linejoin="round" points="380.5,329.362 371.5,324.362 373.5,329.362 
	371.5,334.362 "/>
</svg>
