<?xml version="1.0" encoding="utf-8"?>
<!-- Generator: Adobe Illustrator 15.1.0, SVG Export Plug-In . SVG Version: 6.00 Build 0)  -->
<!DOCTYPE svg PUBLIC "-//W3C//DTD SVG 1.1//EN" "http://www.w3.org/Graphics/SVG/1.1/DTD/svg11.dtd">
<svg version="1.1" id="Layer_1" xmlns="http://www.w3.org/2000/svg" xmlns:xlink="http://www.w3.org/1999/xlink" x="0px" y="0px"
	 width="407px" height="396px" viewBox="0 0 407 396" enable-background="new 0 0 407 396" xml:space="preserve">
<polyline fill="none" stroke="#0000FF" stroke-linecap="round" stroke-linejoin="round" points="221.596,224.828 302.498,166.05 
	383.399,224.828 352.498,319.934 252.498,319.934 221.596,224.828 "/>
<polyline fill="none" stroke="#0000FF" stroke-linecap="round" stroke-linejoin="round" points="233.909,209.068 264.811,113.962 
	364.811,113.962 395.713,209.068 314.811,267.846 233.909,209.068 "/>
<polyline fill="none" stroke="#0000FF" stroke-linecap="round" stroke-linejoin="round" points="234.607,189.08 203.706,93.975 
	284.607,35.196 365.509,93.975 334.607,189.08 234.607,189.08 "/>
<polyline fill="none" stroke="#0000FF" stroke-linecap="round" stroke-linejoin="round" points="223.424,172.499 142.521,113.721 
	173.423,18.615 273.424,18.615 304.324,113.721 223.424,172.499 "/>
<polyline fill="none" stroke="#0000FF" stroke-linecap="round" stroke-linejoin="round" points="204.629,165.659 104.629,165.659 
	73.728,70.553 154.629,11.775 235.531,70.553 204.629,165.659 "/>
<polyline fill="none" stroke="#0000FF" stroke-linecap="round" stroke-linejoin="round" points="185.404,171.172 104.502,229.95 
	23.601,171.172 54.502,76.066 154.502,76.066 185.404,171.172 "/>
<polyline fill="none" stroke="#0000FF" stroke-linecap="round" stroke-linejoin="round" points="173.091,186.932 142.189,282.037 
	42.189,282.037 11.288,186.932 92.189,128.153 173.091,186.932 "/>
<polyline fill="none" stroke="#0000FF" stroke-linecap="round" stroke-linejoin="round" points="172.393,206.92 203.294,302.025 
	122.393,360.804 41.491,302.025 72.393,206.92 172.393,206.92 "/>
<polyline fill="none" stroke="#0000FF" stroke-linecap="round" stroke-linejoin="round" points="183.577,223.5 264.479,282.279 
	233.576,377.385 133.577,377.385 102.675,282.279 183.577,223.5 "/>
<polyline fill="none" stroke="#0000FF" stroke-linecap="round" stroke-linejoin="round" points="202.371,230.341 302.371,230.341 
	333.272,325.446 252.371,384.225 171.469,325.446 202.371,230.341 "/>
<line fill="none" x1="202.371" y1="230.341" x2="202.371" y2="230.341"/>
<polygon fill="#0000FF" stroke="#0000FF" stroke-linejoin="round" points="202.371,230.341 193.371,225.341 195.371,230.341 
	193.371,235.341 "/>
</svg>
