<?xml version="1.0" ?><!DOCTYPE svg  PUBLIC '-//W3C//DTD SVG 1.1//EN'  'http://www.w3.org/Graphics/SVG/1.1/DTD/svg11.dtd'><svg height="213.000" viewBox="-105.000 -106.000 213.000 213.000" width="213.000" xmlns="http://www.w3.org/2000/svg"><line fill="none" stroke="none" stroke-linecap="round" x1="0.0" x2="0.0" y1="0.0" y2="0.0"/><polygon fill="#f00" fill-rule="evenodd" points="0.0,0.0 8.8545602565321,-4.647231720437686 18.481840931630007,-7.3519436834545235 28.461083662973806,-7.995926997618719 38.356147657484314,-6.551036501926507 47.734571136816356,-3.080420844393479 56.186471992254305,2.264237416884531 63.34246159969552,9.249351069373901 68.8897888750469,17.569637128166747 72.58600899734601,26.86145916733168 74.2695794108164,36.71871997664819 73.86692000972225,46.71060995836389 71.39562894206556,56.4004355738701 66.96371348607315,65.36470494682715 60.76486961386174,73.21163649029987 53.07001654800008,79.59828164208335 44.21545629146798,84.24551336252104 34.588175616370066,86.95022532553787 24.60893288502626,87.59420863970207 14.713868890515743,86.14931814400987 5.33544541118369,82.67870248647684 -3.1164554442542656,77.33404422519882 -10.272445051695485,70.34893057270945 -15.81977232704688,62.0286445139166 -19.515992449345994,52.73682247475166 -21.199562862816386,42.87956166543515 -20.796903461722238,32.88767168371945 -18.325612394065544,23.19784606821323 -13.893696938073132,14.233576695256183 -7.694853065861729,6.386645151783452 -6.572520305780927e-14,-3.907985046680551e-14" stroke-linejoin="round"/><polyline fill="none" points="0.0,0.0 8.8545602565321,-4.647231720437686 18.481840931630007,-7.3519436834545235 28.461083662973806,-7.995926997618719 38.356147657484314,-6.551036501926507 47.734571136816356,-3.080420844393479 56.186471992254305,2.264237416884531 63.34246159969552,9.249351069373901 68.8897888750469,17.569637128166747 72.58600899734601,26.86145916733168 74.2695794108164,36.71871997664819 73.86692000972225,46.71060995836389 71.39562894206556,56.4004355738701 66.96371348607315,65.36470494682715 60.76486961386174,73.21163649029987 53.07001654800008,79.59828164208335 44.21545629146798,84.24551336252104 34.588175616370066,86.95022532553787 24.60893288502626,87.59420863970207 14.713868890515743,86.14931814400987 5.33544541118369,82.67870248647684 -3.1164554442542656,77.33404422519882 -10.272445051695485,70.34893057270945 -15.81977232704688,62.0286445139166 -19.515992449345994,52.73682247475166 -21.199562862816386,42.87956166543515 -20.796903461722238,32.88767168371945 -18.325612394065544,23.19784606821323 -13.893696938073132,14.233576695256183 -7.694853065861729,6.386645151783452 -6.572520305780927e-14,-3.907985046680551e-14" stroke="#f00" stroke-linecap="round" stroke-linejoin="round"/><polygon fill="#ff4500" fill-rule="evenodd" points="-6.572520305780927e-14,-3.907985046680551e-14 5.680647467311493,-8.229838658936616 12.948238828813729,-15.098762577733382 21.48514546823646,-20.30656682038502 30.9182636008139,-23.625645351670315 40.83532069902954,-24.91093851306627 50.802893780371654,-24.10627282589902 60.38535207146333,-21.24681604191213 69.16389616324739,-16.457540143761825 76.75486155478472,-9.947759469692784 82.82648663297185,-2.0019826725552337 87.1134122470024,7.0325216735486 89.42827917659184,16.76090237633226 89.66991662895317,26.75798251713421 87.82776388791306,36.58684172248855 83.98233186788455,45.81791168102206 78.301684400573,54.04775033995865 71.03409303907075,60.91667425875542 62.497186399648015,66.12447850140707 53.06406826707057,69.44355703269237 43.147011168854924,70.72885019408834 33.1794380875128,69.9241845069211 23.59697979642111,67.06472772293421 14.818435704637036,62.2754518247839 7.227470313099692,55.76567115071486 1.1558452349125536,47.819894353577304 -3.1310803791180115,38.78539000747347 -5.445947308707462,29.0570093046898 -5.6875847610688,19.059929163887844 -3.845432020028695,9.231069958533494 -1.9095836023552692e-13,-2.4868995751603507e-14" stroke-linejoin="round"/><polyline fill="none" points="-6.572520305780927e-14,-3.907985046680551e-14 5.680647467311493,-8.229838658936616 12.948238828813729,-15.098762577733382 21.48514546823646,-20.30656682038502 30.9182636008139,-23.625645351670315 40.83532069902954,-24.91093851306627 50.802893780371654,-24.10627282589902 60.38535207146333,-21.24681604191213 69.16389616324739,-16.457540143761825 76.75486155478472,-9.947759469692784 82.82648663297185,-2.0019826725552337 87.1134122470024,7.0325216735486 89.42827917659184,16.76090237633226 89.66991662895317,26.75798251713421 87.82776388791306,36.58684172248855 83.98233186788455,45.81791168102206 78.301684400573,54.04775033995865 71.03409303907075,60.91667425875542 62.497186399648015,66.12447850140707 53.06406826707057,69.44355703269237 43.147011168854924,70.72885019408834 33.1794380875128,69.9241845069211 23.59697979642111,67.06472772293421 14.818435704637036,62.2754518247839 7.227470313099692,55.76567115071486 1.1558452349125536,47.819894353577304 -3.1310803791180115,38.78539000747347 -5.445947308707462,29.0570093046898 -5.6875847610688,19.059929163887844 -3.845432020028695,9.231069958533494 -1.9095836023552692e-13,-2.4868995751603507e-14" stroke="#ff4500" stroke-linecap="round" stroke-linejoin="round"/><polygon fill="#ffa500" fill-rule="evenodd" points="-1.9095836023552692e-13,-2.4868995751603507e-14 1.2053668025530273,-9.927088740980592 4.448351253509848,-19.386636925267872 9.587219370797534,-27.96521690526017 16.397377958665512,-35.28790357123793 24.581190408057395,-41.0346603777488 33.78098484464566,-44.95432647634958 43.594686106039816,-46.87559364988668 53.59338835575359,-46.714493303613786 63.3401003263779,-44.47806629570824 72.4088439348834,-40.26405521798295 80.40327156891844,-34.256632575603156 86.97398837935579,-26.71835156485298 91.83382251178188,-17.978671238587786 94.7703758945382,-8.419557564704473 95.65530705365181,1.541210319531686 94.4499402510986,11.468299060512258 91.20695580014177,20.927847244799548 86.06808768285408,29.506427224791853 79.25792909498611,36.82911389076963 71.07411664559423,42.5758706972805 61.87432220900597,46.495536795881286 52.0606209476118,48.416803969418396 42.06191869789802,48.2557036231455 32.315206727273704,46.01927661523996 23.246463118768208,41.80526553751467 15.252035484733154,35.79784289513488 8.681318674295806,28.259561884384695 3.821484541869707,19.519881558119494 0.8849311591133668,9.960767884236175 -2.44804176929847e-13,1.0658141036401503e-14" stroke-linejoin="round"/><polyline fill="none" points="-1.9095836023552692e-13,-2.4868995751603507e-14 1.2053668025530273,-9.927088740980592 4.448351253509848,-19.386636925267872 9.587219370797534,-27.96521690526017 16.397377958665512,-35.28790357123793 24.581190408057395,-41.0346603777488 33.78098484464566,-44.95432647634958 43.594686106039816,-46.87559364988668 53.59338835575359,-46.714493303613786 63.3401003263779,-44.47806629570824 72.4088439348834,-40.26405521798295 80.40327156891844,-34.256632575603156 86.97398837935579,-26.71835156485298 91.83382251178188,-17.978671238587786 94.7703758945382,-8.419557564704473 95.65530705365181,1.541210319531686 94.4499402510986,11.468299060512258 91.20695580014177,20.927847244799548 86.06808768285408,29.506427224791853 79.25792909498611,36.82911389076963 71.07411664559423,42.5758706972805 61.87432220900597,46.495536795881286 52.0606209476118,48.416803969418396 42.06191869789802,48.2557036231455 32.315206727273704,46.01927661523996 23.246463118768208,41.80526553751467 15.252035484733154,35.79784289513488 8.681318674295806,28.259561884384695 3.821484541869707,19.519881558119494 0.8849311591133668,9.960767884236175 -2.44804176929847e-13,1.0658141036401503e-14" stroke="#ffa500" stroke-linecap="round" stroke-linejoin="round"/><polygon fill="#ffd700" fill-rule="evenodd" points="-2.44804176929847e-13,1.0658141036401503e-14 -3.5460488704256368,-9.350162426854164 -5.070599985529121,-19.233266387525504 -4.50702314597277,-29.217372814538212 -1.8799493639869143,-38.86612834797377 2.695805630057033,-47.75783607115511 9.02025938601081,-55.503885689431705 16.81700292664305,-61.765737664814885 25.745281146301714,-66.2697190182809 35.41488544415551,-68.81898415218286 45.40320771247882,-69.30211794743796 55.273710338857995,-67.69800513886038 64.59500499459372,-64.07675315357223 72.95970637469604,-58.596628080025525 80.00223689056398,-51.49713768049193 85.41480416484333,-43.08856375256569 88.96085303526873,-33.73840132571151 90.48540415037222,-23.855297365040165 89.92182731081587,-13.871190938027452 87.29475352883001,-4.222435404591886 82.71899853478607,4.669272318589458 76.39454477883228,12.415321936866057 68.59780123820005,18.677173912249245 59.66952301854138,23.181155265715258 49.99991872068758,25.73042039961723 40.01159645236427,26.213554194872334 30.141093825985095,24.609441386294755 20.81979917024936,20.988189401006597 12.455097790147036,15.508064327459897 5.412567274279087,8.408573927926302 -2.7977620220553945e-13,5.684341886080802e-14" stroke-linejoin="round"/><polyline fill="none" points="-2.44804176929847e-13,1.0658141036401503e-14 -3.5460488704256368,-9.350162426854164 -5.070599985529121,-19.233266387525504 -4.50702314597277,-29.217372814538212 -1.8799493639869143,-38.86612834797377 2.695805630057033,-47.75783607115511 9.02025938601081,-55.503885689431705 16.81700292664305,-61.765737664814885 25.745281146301714,-66.2697190182809 35.41488544415551,-68.81898415218286 45.40320771247882,-69.30211794743796 55.273710338857995,-67.69800513886038 64.59500499459372,-64.07675315357223 72.95970637469604,-58.596628080025525 80.00223689056398,-51.49713768049193 85.41480416484333,-43.08856375256569 88.96085303526873,-33.73840132571151 90.48540415037222,-23.855297365040165 89.92182731081587,-13.871190938027452 87.29475352883001,-4.222435404591886 82.71899853478607,4.669272318589458 76.39454477883228,12.415321936866057 68.59780123820005,18.677173912249245 59.66952301854138,23.181155265715258 49.99991872068758,25.73042039961723 40.01159645236427,26.213554194872334 30.141093825985095,24.609441386294755 20.81979917024936,20.988189401006597 12.455097790147036,15.508064327459897 5.412567274279087,8.408573927926302 -2.7977620220553945e-13,5.684341886080802e-14" stroke="#ffd700" stroke-linecap="round" stroke-linejoin="round"/><polygon fill="#ff0" fill-rule="evenodd" points="-2.7977620220553945e-13,5.684341886080802e-14 -7.485107481711348,-6.631226582407904 -13.427937875237578,-14.673786306387694 -17.568760975517748,-23.776180719518074 -19.72660294319585,-33.54059150781084 -19.807155729809782,-43.54026706497617 -17.80689879204936,-53.338173585398906 -13.813252956392414,-62.50609553856479 -8.000759709496045,-70.64335074255006 -0.6234528976867253,-77.39430209805788 7.996243771113797,-82.46390063619384 17.48160819058529,-85.63058057420862 27.418084419768473,-86.75594280339472 37.371400766945015,-85.7908035942496 46.906549546432444,-82.77734416146465 55.60679900184691,-77.84726714243529 63.091906483557985,-71.21604056002732 69.03473687708423,-63.17348083604753 73.1755599773644,-54.07108642291715 75.33340194504251,-44.306675634624376 75.41395473165645,-34.30700007745904 73.41369779389602,-24.509093557036294 69.42005195823907,-15.3411716038704 63.6075587113427,-7.2039163998851325 56.23025189953338,-0.4529650443772999 47.61055523073285,4.616633493758671 38.12519081126135,7.783313431773454 28.188714582078156,8.908675660959556 18.235398234901602,7.943536451814439 8.700249455414165,4.930077019029499 -3.055333763768431e-13,1.270095140171179e-13" stroke-linejoin="round"/><polyline fill="none" points="-2.7977620220553945e-13,5.684341886080802e-14 -7.485107481711348,-6.631226582407904 -13.427937875237578,-14.673786306387694 -17.568760975517748,-23.776180719518074 -19.72660294319585,-33.54059150781084 -19.807155729809782,-43.54026706497617 -17.80689879204936,-53.338173585398906 -13.813252956392414,-62.50609553856479 -8.000759709496045,-70.64335074255006 -0.6234528976867253,-77.39430209805788 7.996243771113797,-82.46390063619384 17.48160819058529,-85.63058057420862 27.418084419768473,-86.75594280339472 37.371400766945015,-85.7908035942496 46.906549546432444,-82.77734416146465 55.60679900184691,-77.84726714243529 63.091906483557985,-71.21604056002732 69.03473687708423,-63.17348083604753 73.1755599773644,-54.07108642291715 75.33340194504251,-44.306675634624376 75.41395473165645,-34.30700007745904 73.41369779389602,-24.509093557036294 69.42005195823907,-15.3411716038704 63.6075587113427,-7.2039163998851325 56.23025189953338,-0.4529650443772999 47.61055523073285,4.616633493758671 38.12519081126135,7.783313431773454 28.188714582078156,8.908675660959556 18.235398234901602,7.943536451814439 8.700249455414165,4.930077019029499 -3.055333763768431e-13,1.270095140171179e-13" stroke="#ff0" stroke-linecap="round" stroke-linejoin="round"/><polygon fill="#adff2f" fill-rule="evenodd" points="-3.055333763768431e-13,1.270095140171179e-13 -9.7094181742609,-2.3931566428754265 -18.7090970219231,-6.752718620751521 -26.605707392093628,-12.888152155695618 -33.05412951945541,-20.531309361154126 -37.7725364140803,-29.348147591311104 -40.55471105324489,-38.95332870762488 -41.27905905486256,-48.927060204539856 -39.913922935455275,-58.83344215636723 -36.51896569409102,-68.23951813571747 -31.242563253029697,-76.73419748693277 -24.31531971793369,-83.946221960371 -16.039988871889157,-89.5603914794099 -6.778242382311344,-93.33133989629317 3.0651369864146965,-95.09425867018493 13.05994632210092,-94.77209979124325 22.769364496361526,-92.3789431483677 31.769043344023736,-88.01938117049161 39.66565371419428,-81.88394763554751 46.11407584155607,-74.240790430089 50.83248273618097,-65.42395219993202 53.614657375345566,-55.81877108361824 54.33900537696324,-45.84503958670325 52.97386925755597,-35.938657634875874 49.57891201619172,-26.53258165552561 44.3025095751304,-18.037902304310307 37.37526604003439,-10.82587783087207 29.099935193989857,-5.211708311833175 19.83818870441204,-1.4407598949498932 9.994809335685995,0.322158878941861 -2.362554596402333e-13,1.8252066524837574e-13" stroke-linejoin="round"/><polyline fill="none" points="-3.055333763768431e-13,1.270095140171179e-13 -9.7094181742609,-2.3931566428754265 -18.7090970219231,-6.752718620751521 -26.605707392093628,-12.888152155695618 -33.05412951945541,-20.531309361154126 -37.7725364140803,-29.348147591311104 -40.55471105324489,-38.95332870762488 -41.27905905486256,-48.927060204539856 -39.913922935455275,-58.83344215636723 -36.51896569409102,-68.23951813571747 -31.242563253029697,-76.73419748693277 -24.31531971793369,-83.946221960371 -16.039988871889157,-89.5603914794099 -6.778242382311344,-93.33133989629317 3.0651369864146965,-95.09425867018493 13.05994632210092,-94.77209979124325 22.769364496361526,-92.3789431483677 31.769043344023736,-88.01938117049161 39.66565371419428,-81.88394763554751 46.11407584155607,-74.240790430089 50.83248273618097,-65.42395219993202 53.614657375345566,-55.81877108361824 54.33900537696324,-45.84503958670325 52.97386925755597,-35.938657634875874 49.57891201619172,-26.53258165552561 44.3025095751304,-18.037902304310307 37.37526604003439,-10.82587783087207 29.099935193989857,-5.211708311833175 19.83818870441204,-1.4407598949498932 9.994809335685995,0.322158878941861 -2.362554596402333e-13,1.8252066524837574e-13" stroke="#adff2f" stroke-linecap="round" stroke-linejoin="round"/><polygon fill="#0f0" fill-rule="evenodd" points="-2.362554596402333e-13,1.8252066524837574e-13 -9.70941817426082,2.3931566428758306 -19.704227509947046,2.7153155218176153 -29.54760687867311,0.9523967479259654 -38.80935336825097,-2.8185516689572188 -47.084684214295564,-8.432721187996028 -54.01192774939165,-15.644745661434195 -59.28833019045307,-24.139425012649447 -62.68328743181742,-33.545500991999674 -64.0484235512248,-43.451882943827044 -63.32407554960722,-53.425614440742045 -60.54190091044273,-63.03079555705586 -55.823494015817914,-71.8476337872129 -49.3750718884562,-79.49079099267148 -41.47846151828571,-85.62622452761566 -32.47878267062354,-89.98578650549186 -22.769364496362947,-92.37894314836751 -12.774555160676712,-92.7011020273093 -2.93117579195064,-90.93818325341766 6.330570697627227,-87.16723483653448 14.605901543671829,-81.55306531749567 21.533145078767923,-74.3410408440575 26.809547519829344,-65.84636149284225 30.2045047611937,-56.440285513492015 31.569640880601085,-46.533903561664644 30.845292878983514,-36.560172064749636 28.06311823981902,-26.95499094843581 23.344711345194206,-18.13815271827876 16.896289217832486,-10.494995512820168 8.999678847661999,-4.359561977875973 -1.8118839761882555e-13,2.2382096176443156e-13" stroke-linejoin="round"/><polyline fill="none" points="-2.362554596402333e-13,1.8252066524837574e-13 -9.70941817426082,2.3931566428758306 -19.704227509947046,2.7153155218176153 -29.54760687867311,0.9523967479259654 -38.80935336825097,-2.8185516689572188 -47.084684214295564,-8.432721187996028 -54.01192774939165,-15.644745661434195 -59.28833019045307,-24.139425012649447 -62.68328743181742,-33.545500991999674 -64.0484235512248,-43.451882943827044 -63.32407554960722,-53.425614440742045 -60.54190091044273,-63.03079555705586 -55.823494015817914,-71.8476337872129 -49.3750718884562,-79.49079099267148 -41.47846151828571,-85.62622452761566 -32.47878267062354,-89.98578650549186 -22.769364496362947,-92.37894314836751 -12.774555160676712,-92.7011020273093 -2.93117579195064,-90.93818325341766 6.330570697627227,-87.16723483653448 14.605901543671829,-81.55306531749567 21.533145078767923,-74.3410408440575 26.809547519829344,-65.84636149284225 30.2045047611937,-56.440285513492015 31.569640880601085,-46.533903561664644 30.845292878983514,-36.560172064749636 28.06311823981902,-26.95499094843581 23.344711345194206,-18.13815271827876 16.896289217832486,-10.494995512820168 8.999678847661999,-4.359561977875973 -1.8118839761882555e-13,2.2382096176443156e-13" stroke="#0f0" stroke-linecap="round" stroke-linejoin="round"/><polygon fill="#2e8b57" fill-rule="evenodd" points="-1.8118839761882555e-13,2.2382096176443156e-13 -7.485107481711223,6.631226582408285 -16.18535693712567,11.56130360143776 -25.720505716613104,14.574763034222808 -35.673822063789686,15.539902243368031 -45.61029829297292,14.414540014182027 -55.095662712444486,11.247860076167331 -63.715359381245094,6.178261538031432 -71.09266619305451,-0.5726898174763502 -76.90515943995099,-8.70994502146159 -80.89880527560804,-17.87786697462748 -82.89906221336857,-27.675773495050244 -82.81850942675473,-37.675449052215626 -80.6606674590767,-47.43985984050846 -76.5198443587966,-56.54225425363893 -70.57701396527042,-64.58481397761882 -63.09190648355938,-71.2160405600269 -54.39165702814493,-76.14611757905638 -44.856508248657484,-79.15957701184144 -34.9031919014809,-80.12471622098666 -24.96671567229766,-78.99935399180066 -15.481351252826084,-75.83267405378596 -6.861654584025466,-70.76307551565006 0.5156522277839581,-64.01212416014228 6.32814547468044,-55.87486895615703 10.321791310337499,-46.706947002991136 12.32204824809803,-36.909040482568365 12.241495461484195,-26.909364925402976 10.083653493806175,-17.144954137110133 5.942830393526071,-8.042559723979661 -1.1368683772161603e-13,2.3447910280083306e-13" stroke-linejoin="round"/><polyline fill="none" points="-1.8118839761882555e-13,2.2382096176443156e-13 -7.485107481711223,6.631226582408285 -16.18535693712567,11.56130360143776 -25.720505716613104,14.574763034222808 -35.673822063789686,15.539902243368031 -45.61029829297292,14.414540014182027 -55.095662712444486,11.247860076167331 -63.715359381245094,6.178261538031432 -71.09266619305451,-0.5726898174763502 -76.90515943995099,-8.70994502146159 -80.89880527560804,-17.87786697462748 -82.89906221336857,-27.675773495050244 -82.81850942675473,-37.675449052215626 -80.6606674590767,-47.43985984050846 -76.5198443587966,-56.54225425363893 -70.57701396527042,-64.58481397761882 -63.09190648355938,-71.2160405600269 -54.39165702814493,-76.14611757905638 -44.856508248657484,-79.15957701184144 -34.9031919014809,-80.12471622098666 -24.96671567229766,-78.99935399180066 -15.481351252826084,-75.83267405378596 -6.861654584025466,-70.76307551565006 0.5156522277839581,-64.01212416014228 6.32814547468044,-55.87486895615703 10.321791310337499,-46.706947002991136 12.32204824809803,-36.909040482568365 12.241495461484195,-26.909364925402976 10.083653493806175,-17.144954137110133 5.942830393526071,-8.042559723979661 -1.1368683772161603e-13,2.3447910280083306e-13" stroke="#2e8b57" stroke-linecap="round" stroke-linejoin="round"/><polygon fill="#00f" fill-rule="evenodd" points="-1.1368683772161603e-13,2.3447910280083306e-13 -3.5460488704254454,9.35016242685451 -8.958616144704763,17.758736354780865 -16.001146660572687,24.858226754314575 -24.36584804067501,30.338351827861395 -33.687142696410774,33.95960381314967 -43.55764532279001,35.56371662172736 -53.545967591113396,35.08058282647235 -63.21557188896729,32.531317692570454 -72.14385010862607,28.027336339104497 -79.94059364925843,21.76548436372134 -86.26504740521233,14.01943474544475 -90.8408023992564,5.127727022263386 -93.46787618124237,-4.521028511172224 -94.03145302079882,-14.505134938185007 -92.50690190569541,-24.388238898856443 -88.96085303527008,-33.738401325710726 -83.54828576099075,-42.14697525363709 -76.50575524512283,-49.24646565317081 -68.1410538650205,-54.72659072671764 -58.819759209284726,-58.34784271200592 -48.94925658290549,-59.95195552058362 -38.9609343145821,-59.46882172532862 -29.291330016728196,-56.919556591426726 -20.36305179706941,-52.415575237960766 -12.566308256437043,-46.15372326257761 -6.241854500483134,-38.40767364430101 -1.6660995064390587,-29.515965921119644 0.9609742755469162,-19.86721038768403 1.5245511151033724,-9.88310396067124 -2.531308496145357e-14,1.9895196601282805e-13" stroke-linejoin="round"/><polyline fill="none" points="-1.1368683772161603e-13,2.3447910280083306e-13 -3.5460488704254454,9.35016242685451 -8.958616144704763,17.758736354780865 -16.001146660572687,24.858226754314575 -24.36584804067501,30.338351827861395 -33.687142696410774,33.95960381314967 -43.55764532279001,35.56371662172736 -53.545967591113396,35.08058282647235 -63.21557188896729,32.531317692570454 -72.14385010862607,28.027336339104497 -79.94059364925843,21.76548436372134 -86.26504740521233,14.01943474544475 -90.8408023992564,5.127727022263386 -93.46787618124237,-4.521028511172224 -94.03145302079882,-14.505134938185007 -92.50690190569541,-24.388238898856443 -88.96085303527008,-33.738401325710726 -83.54828576099075,-42.14697525363709 -76.50575524512283,-49.24646565317081 -68.1410538650205,-54.72659072671764 -58.819759209284726,-58.34784271200592 -48.94925658290549,-59.95195552058362 -38.9609343145821,-59.46882172532862 -29.291330016728196,-56.919556591426726 -20.36305179706941,-52.415575237960766 -12.566308256437043,-46.15372326257761 -6.241854500483134,-38.40767364430101 -1.6660995064390587,-29.515965921119644 0.9609742755469162,-19.86721038768403 1.5245511151033724,-9.88310396067124 -2.531308496145357e-14,1.9895196601282805e-13" stroke="#00f" stroke-linecap="round" stroke-linejoin="round"/><polygon fill="#8a2be2" fill-rule="evenodd" points="-2.531308496145357e-14,1.9895196601282805e-13 1.2053668025532969,9.927088740980855 0.32043564343977793,19.88785662521712 -2.6161177393164925,29.44697029910055 -7.475951871742547,38.18665062536587 -14.046668682179877,45.72493163611618 -22.041096316214944,51.73235427849611 -31.10983992472048,55.94636535622153 -40.856551895344865,58.18279236412719 -50.85525414505874,58.34389271040018 -60.66895540645301,56.42262553686315 -69.8687498430414,52.50295943826242 -78.05256229243342,46.75620263175158 -84.86272088030154,39.4335159657738 -90.00158899758937,30.854935985781466 -93.2445734485463,21.395387801494117 -94.44994025109963,11.46829906051346 -93.56500909198611,1.507531176277194 -90.62845570922984,-8.051582497606244 -85.76862157680378,-16.791262823871577 -79.19790476636645,-24.329543834621894 -71.20347713233139,-30.336966477001827 -62.13473352382585,-34.55097755472725 -52.38802155320147,-36.787404562632915 -42.389319303487596,-36.94850490890591 -32.57561804209332,-35.027237735368885 -23.375823605504923,-31.10757163676816 -15.192011156112898,-25.360814830257315 -8.381852568244774,-18.03812816427954 -3.242984450956947,-9.459548184287206 3.552713678800501e-15,1.438849039914203e-13" stroke-linejoin="round"/><polyline fill="none" points="-2.531308496145357e-14,1.9895196601282805e-13 1.2053668025532969,9.927088740980855 0.32043564343977793,19.88785662521712 -2.6161177393164925,29.44697029910055 -7.475951871742547,38.18665062536587 -14.046668682179877,45.72493163611618 -22.041096316214944,51.73235427849611 -31.10983992472048,55.94636535622153 -40.856551895344865,58.18279236412719 -50.85525414505874,58.34389271040018 -60.66895540645301,56.42262553686315 -69.8687498430414,52.50295943826242 -78.05256229243342,46.75620263175158 -84.86272088030154,39.4335159657738 -90.00158899758937,30.854935985781466 -93.2445734485463,21.395387801494117 -94.44994025109963,11.46829906051346 -93.56500909198611,1.507531176277194 -90.62845570922984,-8.051582497606244 -85.76862157680378,-16.791262823871577 -79.19790476636645,-24.329543834621894 -71.20347713233139,-30.336966477001827 -62.13473352382585,-34.55097755472725 -52.38802155320147,-36.787404562632915 -42.389319303487596,-36.94850490890591 -32.57561804209332,-35.027237735368885 -23.375823605504923,-31.10757163676816 -15.192011156112898,-25.360814830257315 -8.381852568244774,-18.03812816427954 -3.242984450956947,-9.459548184287206 3.552713678800501e-15,1.438849039914203e-13" stroke="#8a2be2" stroke-linecap="round" stroke-linejoin="round"/><polygon fill="#a020f0" fill-rule="evenodd" points="3.552713678800501e-15,1.438849039914203e-13 5.680647467311707,8.22983865893677 9.526079487340345,17.46090861747035 11.36823222838057,27.289767822824786 11.12659477601933,37.286847963626855 8.811727846429953,47.01522866641065 4.5248022323994315,56.049733012514636 -1.5468228457876947,63.99550980965234 -9.137788237325058,70.50529048372154 -17.91633232910918,75.29456638187199 -27.49879062020095,78.154023165859 -37.46636370154318,78.95868885302636 -47.38342079975895,77.67339569163049 -56.81653893233654,74.35431716034525 -65.35344557175944,69.14651291769363 -72.62103693326183,62.277588998896846 -78.30168440057355,54.04775033996022 -82.1471164206022,44.816680381426636 -83.98926916164244,34.98782117607219 -83.74763170928121,24.990741035270112 -81.43276477969184,15.262360332486308 -77.14583916566131,6.227855986382318 -71.07421408747419,-1.717920810755393 -63.48324869593682,-8.227701484824594 -54.704704604152695,-13.016977382975053 -45.12224631306092,-15.876434166962078 -35.15467323171868,-16.681099854129442 -25.237616133502904,-15.39580669273357 -15.804498000925301,-12.076728161448326 -7.267591361502403,-6.868923918796706 3.552713678800501e-15,8.08242361927114e-14" stroke-linejoin="round"/><polyline fill="none" points="3.552713678800501e-15,1.438849039914203e-13 5.680647467311707,8.22983865893677 9.526079487340345,17.46090861747035 11.36823222838057,27.289767822824786 11.12659477601933,37.286847963626855 8.811727846429953,47.01522866641065 4.5248022323994315,56.049733012514636 -1.5468228457876947,63.99550980965234 -9.137788237325058,70.50529048372154 -17.91633232910918,75.29456638187199 -27.49879062020095,78.154023165859 -37.46636370154318,78.95868885302636 -47.38342079975895,77.67339569163049 -56.81653893233654,74.35431716034525 -65.35344557175944,69.14651291769363 -72.62103693326183,62.277588998896846 -78.30168440057355,54.04775033996022 -82.1471164206022,44.816680381426636 -83.98926916164244,34.98782117607219 -83.74763170928121,24.990741035270112 -81.43276477969184,15.262360332486308 -77.14583916566131,6.227855986382318 -71.07421408747419,-1.717920810755393 -63.48324869593682,-8.227701484824594 -54.704704604152695,-13.016977382975053 -45.12224631306092,-15.876434166962078 -35.15467323171868,-16.681099854129442 -25.237616133502904,-15.39580669273357 -15.804498000925301,-12.076728161448326 -7.267591361502403,-6.868923918796706 3.552713678800501e-15,8.08242361927114e-14" stroke="#a020f0" stroke-linecap="round" stroke-linejoin="round"/><polygon fill="#ee82ee" fill-rule="evenodd" points="3.552713678800501e-15,8.08242361927114e-14 8.85456025653228,4.647231720437752 16.549413322394116,11.033876872221253 22.748257194605685,18.88080841569403 27.18017265059825,27.84507778865116 29.65146371825508,37.53490340415749 30.054123119349335,47.52679338587333 28.37055270587902,57.384054195190004 24.674332583579947,66.67587623435512 19.127005308228554,74.99616229314813 11.971015700787303,81.98127594563768 3.5191148453492804,87.32593420691586 -5.859308633982874,90.79654986444903 -15.754372628493522,92.24144036014137 -25.733615359837483,91.59745704597727 -35.360896034935564,88.89274508296049 -44.215456291467845,84.24551336252281 -51.91030935732969,77.85886821073932 -58.10915322954126,70.01193666726654 -62.54106868553384,61.047667294309406 -65.01235975319067,51.35784167880308 -65.41501915428492,41.365951697087226 -63.731448740814606,31.50869088777055 -60.03522861851553,22.216868848605433 -54.48790134316414,13.8965827898124 -47.33191173572289,6.911469137322846 -38.880010880284864,1.566810876044661 -29.501587400952708,-1.903804781488522 -19.606523406442054,-3.3486952771808625 -9.627280675098087,-2.704711963016763 3.552713678800501e-15,1.4654943925052066e-14" stroke-linejoin="round"/><polyline fill="none" points="3.552713678800501e-15,8.08242361927114e-14 8.85456025653228,4.647231720437752 16.549413322394116,11.033876872221253 22.748257194605685,18.88080841569403 27.18017265059825,27.84507778865116 29.65146371825508,37.53490340415749 30.054123119349335,47.52679338587333 28.37055270587902,57.384054195190004 24.674332583579947,66.67587623435512 19.127005308228554,74.99616229314813 11.971015700787303,81.98127594563768 3.5191148453492804,87.32593420691586 -5.859308633982874,90.79654986444903 -15.754372628493522,92.24144036014137 -25.733615359837483,91.59745704597727 -35.360896034935564,88.89274508296049 -44.215456291467845,84.24551336252281 -51.91030935732969,77.85886821073932 -58.10915322954126,70.01193666726654 -62.54106868553384,61.047667294309406 -65.01235975319067,51.35784167880308 -65.41501915428492,41.365951697087226 -63.731448740814606,31.50869088777055 -60.03522861851553,22.216868848605433 -54.48790134316414,13.8965827898124 -47.33191173572289,6.911469137322846 -38.880010880284864,1.566810876044661 -29.501587400952708,-1.903804781488522 -19.606523406442054,-3.3486952771808625 -9.627280675098087,-2.704711963016763 3.552713678800501e-15,1.4654943925052066e-14" stroke="#ee82ee" stroke-linecap="round" stroke-linejoin="round"/><polygon fill="#d02090" fill-rule="evenodd" points="3.552713678800501e-15,1.4654943925052066e-14 10.000000000000165,-9.192646643896296e-14 19.781476007338405,2.0791169081774306 28.916930583764607,6.1464833389354006 37.007100527514275,12.024335861860141 43.69840659110305,19.455784116634135 48.69840659110323,28.11603815447861 51.78857653485286,37.626603317430266 52.83386116752952,47.571822271113156 51.78857653485308,57.51704122479607 48.698406591103655,67.0276063877478 43.69840659110367,75.68786042559238 37.00710052751506,83.11930868036652 28.916930583765513,88.99716120329144 19.781476007339396,93.06452763404961 10.000000000001197,95.14364454222735 1.0267342531733448e-12,95.14364454222746 -9.781476007337222,93.06452763404995 -18.916930583763435,88.99716120329198 -27.007100527513117,83.11930868036724 -33.6984065911019,75.68786042559324 -38.698406591102085,67.02760638774876 -41.78857653485172,57.5170412247971 -42.83386116752839,47.5718222711142 -41.788576534851956,37.626603317431275 -38.69840659110254,28.116038154479533 -33.698406591102554,19.455784116634934 -27.00710052751394,12.02433586186078 -18.91693058376439,6.14648333893585 -9.781476007338265,2.0791169081776673 -5.5067062021407764e-14,-7.904787935331115e-14" stroke-linejoin="round"/><polyline fill="none" points="3.552713678800501e-15,1.4654943925052066e-14 10.000000000000165,-9.192646643896296e-14 19.781476007338405,2.0791169081774306 28.916930583764607,6.1464833389354006 37.007100527514275,12.024335861860141 43.69840659110305,19.455784116634135 48.69840659110323,28.11603815447861 51.78857653485286,37.626603317430266 52.83386116752952,47.571822271113156 51.78857653485308,57.51704122479607 48.698406591103655,67.0276063877478 43.69840659110367,75.68786042559238 37.00710052751506,83.11930868036652 28.916930583765513,88.99716120329144 19.781476007339396,93.06452763404961 10.000000000001197,95.14364454222735 1.0267342531733448e-12,95.14364454222746 -9.781476007337222,93.06452763404995 -18.916930583763435,88.99716120329198 -27.007100527513117,83.11930868036724 -33.6984065911019,75.68786042559324 -38.698406591102085,67.02760638774876 -41.78857653485172,57.5170412247971 -42.83386116752839,47.5718222711142 -41.788576534851956,37.626603317431275 -38.69840659110254,28.116038154479533 -33.698406591102554,19.455784116634934 -27.00710052751394,12.02433586186078 -18.91693058376439,6.14648333893585 -9.781476007338265,2.0791169081776673 -5.5067062021407764e-14,-7.904787935331115e-14" stroke="#d02090" stroke-linecap="round" stroke-linejoin="round"/><polygon fill="#d02090" fill-rule="evenodd" points="-5.5067062021407764e-14,-7.904787935331115e-14 -9.000000000000114,-4.9999999999999725 -7.000000000000055,3.7192471324927724e-15 -8.999999999999996,5.0000000000000275" stroke="#d02090" stroke-linejoin="round"/></svg>