<?xml version="1.0" encoding="utf-8"?>
<!-- Generator: Adobe Illustrator 15.1.0, SVG Export Plug-In . SVG Version: 6.00 Build 0)  -->
<!DOCTYPE svg PUBLIC "-//W3C//DTD SVG 1.1//EN" "http://www.w3.org/Graphics/SVG/1.1/DTD/svg11.dtd">
<svg version="1.1" id="Layer_1" xmlns="http://www.w3.org/2000/svg" xmlns:xlink="http://www.w3.org/1999/xlink" x="0px" y="0px"
	 width="470px" height="469px" viewBox="0 0 470 469" enable-background="new 0 0 470 469" xml:space="preserve">
<polyline fill="none" stroke="#FF0000" stroke-linecap="round" stroke-linejoin="round" points="234.198,236.502 322.744,190.03 
	414.285,230.282 439.889,326.949 380.275,407.238 280.335,410.689 215.325,334.705 234.198,236.502 "/>
<polyline fill="none" stroke="#FF4500" stroke-linecap="round" stroke-linejoin="round" points="234.198,236.502 291.005,154.204 
	390.767,147.305 458.361,221 442.888,319.795 355.999,369.297 263.123,332.227 234.198,236.502 "/>
<polyline fill="none" stroke="#FFA500" stroke-linecap="round" stroke-linejoin="round" points="234.198,236.502 246.252,137.231 
	331.381,84.761 425.48,118.602 457.692,213.272 403.76,297.482 304.296,307.82 234.198,236.502 "/>
<polyline fill="none" stroke="#FFD700" stroke-linecap="round" stroke-linejoin="round" points="234.198,236.502 198.738,143 
	249.73,56.979 348.779,43.213 421.297,112.07 412.677,211.698 329.41,267.075 234.198,236.502 "/>
<polyline fill="none" stroke="#FFFF00" stroke-linecap="round" stroke-linejoin="round" points="234.198,236.502 159.347,170.189 
	164.523,70.324 245.829,12.105 342.039,39.374 380.706,131.596 332.712,219.326 234.198,236.502 "/>
<polyline fill="none" stroke="#ADFF2F" stroke-linecap="round" stroke-linejoin="round" points="234.198,236.502 137.104,212.57 
	95.277,121.738 140.214,32.403 238.076,11.837 315.172,75.527 313.445,175.512 234.198,236.502 "/>
<polyline fill="none" stroke="#00FF00" stroke-linecap="round" stroke-linejoin="round" points="234.198,236.502 137.104,260.434 
	57.856,199.443 56.13,99.458 133.226,35.769 231.088,56.335 276.025,145.669 234.198,236.502 "/>
<polyline fill="none" stroke="#2E8B57" stroke-linecap="round" stroke-linejoin="round" points="234.198,236.502 159.347,302.814 
	60.833,285.639 12.839,197.908 51.506,105.686 147.716,78.417 229.022,136.636 234.198,236.502 "/>
<polyline fill="none" stroke="#0000FF" stroke-linecap="round" stroke-linejoin="round" points="234.198,236.502 198.738,330.004 
	103.526,360.576 20.259,305.199 11.639,205.571 84.157,136.715 183.205,150.48 234.198,236.502 "/>
<polyline fill="none" stroke="#8A2BE2" stroke-linecap="round" stroke-linejoin="round" points="234.198,236.502 246.252,335.773 
	176.154,407.092 76.69,396.753 22.758,312.543 54.97,217.873 149.07,184.031 234.198,236.502 "/>
<polyline fill="none" stroke="#A020F0" stroke-linecap="round" stroke-linejoin="round" points="234.198,236.502 291.005,318.801 
	262.08,414.525 169.204,451.595 82.315,402.094 66.842,303.299 134.437,229.603 234.198,236.502 "/>
<polyline fill="none" stroke="#EE82EE" stroke-linecap="round" stroke-linejoin="round" points="234.198,236.502 322.744,282.975 
	341.617,381.178 276.607,457.162 176.667,453.71 117.054,373.422 142.657,276.755 234.198,236.502 "/>
<polyline fill="none" stroke="#D02090" stroke-linecap="round" stroke-linejoin="round" points="234.198,236.502 334.198,236.502 
	396.547,314.686 374.295,412.178 284.198,455.566 194.102,412.178 171.849,314.686 234.198,236.502 "/>
<line fill="none" x1="234.198" y1="236.502" x2="234.198" y2="236.502"/>
<polygon fill="#D02090" stroke="#D02090" stroke-linejoin="round" points="234.198,236.502 225.198,231.502 227.198,236.502 
	225.198,241.502 "/>
</svg>
