<?xml version="1.0" ?><!DOCTYPE svg  PUBLIC '-//W3C//DTD SVG 1.1//EN'  'http://www.w3.org/Graphics/SVG/1.1/DTD/svg11.dtd'><svg xmlns="http://www.w3.org/2000/svg" width="645.000" height="721.000" viewBox="-346.000 -285.000 645.000 721.000"><polyline points="-74.0,-238.0 5.0,-238.0 71.45902909366332,-195.28937542100778 104.27681512081236,-123.42844778800082 93.03394289722284,-45.232553879407135 41.29994491554534,14.47166249457927 -34.49999999999994,36.72853448505222 -110.29994491554524,14.471662494579292 -162.03394289722277,-45.23255387940709 -173.27681512081233,-123.42844778800077 -140.45902909366333,-195.28937542100772 -74.00000000000004,-237.99999999999994" stroke="#ff0" fill="none" stroke-width="4.0" stroke-linecap="round" stroke-linejoin="round"/><polyline points="-164.0,-65.0 -75.00000000000001,-65.00000000000003 -119.49999999999997,12.076260936815018 -164.00000000000003,-64.99999999999997" stroke="#8a2be2" fill="none" stroke-width="2.0" stroke-linecap="round" stroke-linejoin="round"/><polyline points="102.0,60.0 164.0,59.999999999999936 214.15905365124678,96.4426856421332 233.3181073024936,155.4081896524327 214.15905365124692,214.37369366273225 164.00000000000023,250.81637930486565 102.00000000000023,250.8163793048657 51.84094634875344,214.37369366273242 32.68189269750663,155.40818965243292 51.840946348753306,96.44268564213337 102.00000000000001,59.999999999999964" stroke="#adff2f" fill="none" stroke-width="4.0" stroke-linecap="round" stroke-linejoin="round"/><polyline points="-210.0,-271.0 -120.99999999999999,-271.0000000000001 -43.92373906318487,-226.5000000000002 0.5762609368152525,-149.42373906318522 0.5762609368153859,-60.42373906318521 -43.9237390631845,16.652521873629922 -120.99999999999949,61.15252187363007 -209.99999999999955,61.152521873630235 -287.0762609368147,16.65252187363037 -331.5762609368149,-60.423739063184605 -331.57626093681506,-149.42373906318466 -287.07626093681523,-226.49999999999983 -210.00000000000026,-271.0" stroke="#ff0" fill="none" stroke-width="3.0" stroke-linecap="round" stroke-linejoin="round"/><polyline points="-116.0,81.0 -23.999999999999957,80.99999999999979 55.67433714816853,126.99999999999962 101.67433714816875,206.67433714816787 101.67433714816899,298.6743371481679 55.67433714816918,378.3486742963364 -23.999999999999083,424.34867429633664 -115.99999999999912,424.3486742963369 -195.67433714816764,378.34867429633715 -241.6743371481679,298.6743371481689 -241.67433714816818,206.67433714816883 -195.67433714816843,127.0000000000003 -116.0000000000002,81.00000000000001" stroke="#8a2be2" fill="none" stroke-width="0.0" stroke-linecap="round" stroke-linejoin="round"/><polyline points="86.0,-108.0 140.00000000000003,-108.00000000000018 185.42769077288392,-78.80539585739805 207.86010147498598,-29.68526810825412 200.17510020822877,23.765089753316296 164.8126205751835,64.5755667684464 113.00000000000068,79.78912483788379 61.18737942481774,64.57556676844678 25.824899791772175,23.765089753316943 18.139898525014562,-29.685268108253425 40.57230922711625,-78.80539585739754 85.99999999999994,-108.0" stroke="#008000" fill="none" stroke-width="0.0" stroke-linecap="round" stroke-linejoin="round"/><polyline points="-86.0,6.0 4.000000000000043,5.99999999999964 76.81152949374555,58.90067270632195 104.62305898749118,144.4957591728857 76.81152949374625,230.0908456394497 4.000000000001165,282.9915183457726 -85.99999999999889,282.991518345773 -158.81152949374444,230.09084563945066 -186.62305898749008,144.4957591728869 -158.81152949374513,58.90067270632288 -86.00000000000001,5.999999999999957" stroke="#d02090" fill="none" stroke-width="0.0" stroke-linecap="round" stroke-linejoin="round"/><polyline points="59.0,-258.0 146.00000000000006,-258.00000000000034 219.18905735631307,-210.96424888136363 255.33016348747756,-131.8262652855206 242.9487725577021,-45.71179984187931 185.97588870446253,20.038413126941478 102.50000000000128,44.54914557214625 19.02411129553981,20.038413126942213 -37.94877255770034,-45.711799841878076 -50.33016348747655,-131.82626528551927 -14.189057356312745,-210.9642488813626 58.999999999999886,-258.0" stroke="#ffd700" fill="none" stroke-width="0.0" stroke-linecap="round" stroke-linejoin="round"/><polyline points="75.0,-11.0 173.0000000000001,-11.000000000000457 242.29646455628216,58.29646455628095 242.29646455628264,156.29646455628108 173.00000000000125,225.59292911256316 75.00000000000114,225.59292911256364 5.703535443719048,156.29646455628227 5.7035354437185415,58.29646455628219 74.9999999999999,-10.9999999999999" stroke="#00f" fill="none" stroke-width="2.0" stroke-linecap="round" stroke-linejoin="round"/><polyline points="39.0,93.0 109.00000000000006,92.99999999999963 162.6231110183288,137.99513267805713 174.77848345501434,206.93167538891169 139.77848345501465,267.55345365382266 74.00000000000115,291.49486368661985 8.221516544987352,267.5534536538234 -26.77848345501306,206.93167538891285 -14.623111018328363,137.99513267805816 38.99999999999987,93.0" stroke="#ee82ee" fill="none" stroke-width="0.0" stroke-linecap="round" stroke-linejoin="round"/><polyline points="-256.0,-81.0 -190.99999999999994,-81.00000000000043 -138.41389536562804,-42.793958600989974 -118.32779073125602,19.02471495819495 -138.4138953656272,80.84338851738013 -190.9999999999986,119.04942991639128 -255.9999999999987,119.0494299163917 -308.5861046343706,80.84338851738124 -328.6722092687426,19.024714958196306 -308.5861046343714,-42.7939586009889 -256.0,-81.00000000000006" stroke="#8a2be2" fill="none" stroke-width="7.0" stroke-linecap="round" stroke-linejoin="round"/><polyline points="126.0,-143.0 196.0000000000001,-143.00000000000045 254.88774729818311,-105.15514277810897 283.96679820831565,-41.480903103292796 274.0047595291861,27.806597828372652 228.16450815301647,80.70906803317112 161.0000000000017,100.43034701207168 93.83549184698667,80.70906803317203 47.99524047081629,27.806597828374194 38.03320179168584,-41.480903103291126 67.11225270181748,-105.1551427781077 125.99999999999997,-143.0" stroke="#008000" fill="none" stroke-width="4.0" stroke-linecap="round" stroke-linejoin="round"/><polyline points="94.0,-264.0 180.0000000000001,-264.0000000000006 240.81118318204372,-203.1888168179579 240.81118318204435,-117.1888168179578 180.00000000000165,-56.3776336359142 94.00000000000155,-56.37763363591357 33.18881681795794,-117.18881681795627 33.188816817957296,-203.18881681795636 93.99999999999999,-264.0" stroke="#ff4500" fill="none" stroke-linecap="round" stroke-linejoin="round"/><polyline points="-279.0,-176.0 -209.99999999999994,-176.00000000000054 -209.9999999999994,-107.00000000000047 -278.9999999999995,-106.99999999999993 -279.00000000000006,-176.0" stroke="#ee82ee" fill="none" stroke-linecap="round" stroke-linejoin="round"/><polyline points="-288.0,-182.0 -236.99999999999994,-182.0000000000004 -205.20202010520418,-142.1265943941311 -216.5505877369758,-92.40527087285795 -262.49999999999903,-70.27720017786208 -308.4494122630226,-92.40527087285719 -319.7979798947951,-142.12659439413014 -288.0,-181.99999999999997" stroke="#ff4500" fill="none" stroke-width="2.0" stroke-linecap="round" stroke-linejoin="round"/><polyline points="-265.0,-116.0 -174.99999999999994,-116.0000000000008 -219.99999999999926,-38.05771365940085 -265.0,-115.99999999999996" stroke="#d02090" fill="none" stroke-linecap="round" stroke-linejoin="round"/><polyline points="62.0,96.0 146.00000000000006,95.99999999999919 213.95742752749618,145.37396119256633 239.91485505499256,225.26270856135906 213.9574275274977,305.1514559301523 146.00000000000256,354.5254171227207 62.00000000000249,354.5254171227215 -5.9574275274936355,305.1514559301543 -31.914855054990007,225.2627085613616 -5.957427527495156,145.37396119256837 62.000000000000014,95.99999999999994" stroke="#8a2be2" fill="none" stroke-width="3.0" stroke-linecap="round" stroke-linejoin="round"/><polyline points="-190.0,85.0 -100.99999999999991,84.99999999999915 -56.49999999999913,162.0762609368138 -100.99999999999842,239.15252187362935 -189.99999999999852,239.15252187363023 -234.49999999999935,162.07626093681557 -190.0000000000001,85.0" stroke="#2e8b57" fill="none" stroke-width="5.0" stroke-linecap="round" stroke-linejoin="round"/><polyline points="11.0,-223.0 91.00000000000007,-223.00000000000082 158.30028262649506,-179.7487346035537 191.5334836666468,-106.9781749751925 180.1482966047848,-27.79245962471768 127.7594378891626,32.66750632362361 51.000000000002956,55.20611087093884 -25.75943788915717,32.66750632362526 -78.14829660478068,-27.79245962471491 -89.53348366664437,-106.9781749751895 -56.30028262649421,-179.74873460355144 10.9999999999999,-223.00000000000003" stroke="#ff4500" fill="none" stroke-width="2.0" stroke-linecap="round" stroke-linejoin="round"/><polyline points="-76.0,51.0 -17.999999999999922,50.99999999999937 -17.999999999999282,108.99999999999945 -75.99999999999936,109.00000000000009 -76.0,51.00000000000001" stroke="#8a2be2" fill="none" stroke-width="7.0" stroke-linecap="round" stroke-linejoin="round"/><line x1="0.0" y1="0.0" x2="0.0" y2="0.0" stroke="none" fill="none" stroke-width="7.0" stroke-linecap="round"/><polygon points="-76.0,51.00000000000001 -85.00000000000006,46.00000000000011 -83.0,51.000000000000085 -84.99999999999994,56.00000000000011" stroke="#8a2be2" fill="#8a2be2" fill-rule="evenodd" stroke-linejoin="round"/></svg>