<?xml version="1.0" encoding="utf-8"?>
<!-- Generator: Adobe Illustrator 15.1.0, SVG Export Plug-In . SVG Version: 6.00 Build 0)  -->
<!DOCTYPE svg PUBLIC "-//W3C//DTD SVG 1.1//EN" "http://www.w3.org/Graphics/SVG/1.1/DTD/svg11.dtd">
<svg version="1.1" id="Layer_1" xmlns="http://www.w3.org/2000/svg" xmlns:xlink="http://www.w3.org/1999/xlink" x="0px" y="0px"
	 width="473px" height="461px" viewBox="0 0 473 461" enable-background="new 0 0 473 461" xml:space="preserve">
<polyline fill="none" stroke="#000000" stroke-linecap="round" stroke-linejoin="round" points="236,230.5 326.097,187.112 
	416.193,230.5 438.445,327.992 376.097,406.176 276.097,406.176 213.748,327.992 236,230.5 "/>
<polyline fill="none" stroke="#000000" stroke-linecap="round" stroke-linejoin="round" points="236,230.5 298.35,152.317 
	398.35,152.317 460.697,230.5 438.445,327.992 348.35,371.381 258.252,327.992 236,230.5 "/>
<polyline fill="none" stroke="#000000" stroke-linecap="round" stroke-linejoin="round" points="236,230.5 258.252,133.007 
	348.35,89.619 438.445,133.007 460.697,230.5 398.35,308.684 298.35,308.684 236,230.5 "/>
<polyline fill="none" stroke="#000000" stroke-linecap="round" stroke-linejoin="round" points="236,230.5 213.748,133.007 
	276.097,54.824 376.097,54.824 438.445,133.007 416.193,230.5 326.097,273.889 236,230.5 "/>
<polyline fill="none" stroke="#000000" stroke-linecap="round" stroke-linejoin="round" points="236,230.5 173.651,152.317 
	195.903,54.824 286,11.436 376.097,54.824 398.35,152.317 336,230.5 236,230.5 "/>
<polyline fill="none" stroke="#000000" stroke-linecap="round" stroke-linejoin="round" points="236,230.5 145.903,187.112 
	123.651,89.619 186,11.436 286,11.436 348.35,89.619 326.097,187.112 236,230.5 "/>
<polyline fill="none" stroke="#000000" stroke-linecap="round" stroke-linejoin="round" points="236,230.5 136,230.5 
	73.651,152.317 95.903,54.824 186,11.436 276.097,54.824 298.35,152.317 236,230.5 "/>
<polyline fill="none" stroke="#000000" stroke-linecap="round" stroke-linejoin="round" points="236,230.5 145.903,273.889 
	55.806,230.5 33.554,133.007 95.903,54.824 195.903,54.824 258.252,133.007 236,230.5 "/>
<polyline fill="none" stroke="#000000" stroke-linecap="round" stroke-linejoin="round" points="236,230.5 173.651,308.684 
	73.651,308.684 11.302,230.5 33.554,133.007 123.651,89.619 213.748,133.007 236,230.5 "/>
<polyline fill="none" stroke="#000000" stroke-linecap="round" stroke-linejoin="round" points="236,230.5 213.748,327.992 
	123.651,371.381 33.554,327.992 11.302,230.5 73.651,152.317 173.651,152.317 236,230.5 "/>
<polyline fill="none" stroke="#000000" stroke-linecap="round" stroke-linejoin="round" points="236,230.5 258.252,327.992 
	195.903,406.176 95.903,406.176 33.554,327.992 55.806,230.5 145.903,187.112 236,230.5 "/>
<polyline fill="none" stroke="#000000" stroke-linecap="round" stroke-linejoin="round" points="236,230.5 298.35,308.684 
	276.097,406.176 186,449.564 95.903,406.176 73.651,308.684 136,230.5 236,230.5 "/>
<polyline fill="none" stroke="#000000" stroke-linecap="round" stroke-linejoin="round" points="236,230.5 326.097,273.889 
	348.35,371.381 286,449.564 186,449.564 123.651,371.381 145.903,273.889 236,230.5 "/>
<polyline fill="none" stroke="#000000" stroke-linecap="round" stroke-linejoin="round" points="236,230.5 336,230.5 
	398.35,308.684 376.097,406.176 286,449.564 195.903,406.176 173.651,308.684 236,230.5 "/>
<line fill="none" x1="236" y1="230.5" x2="236" y2="230.5"/>
<polygon stroke="#000000" stroke-linejoin="round" points="236,230.5 227,225.5 229,230.5 227,235.5 "/>
</svg>
