<?xml version="1.0" ?><!DOCTYPE svg  PUBLIC '-//W3C//DTD SVG 1.1//EN'  'http://www.w3.org/Graphics/SVG/1.1/DTD/svg11.dtd'><svg xmlns="http://www.w3.org/2000/svg" width="473.000" height="461.000" viewBox="-236.000 -230.000 473.000 461.000"><polyline points="0.0,-0.0 90.09688679024191,-43.388373911755814 180.19377358048382,-1.4210854715202004e-14 202.44586697611527,97.49279121818232 140.09688679024197,175.6759394649853 40.096886790241996,175.67593946498536 -22.252093395631377,97.49279121818243 0.0,9.947598300641403e-14" stroke="#000" fill="none" stroke-linecap="round" stroke-linejoin="round"/><polyline points="0.0,9.947598300641403e-14 62.34898018587327,-78.18314824680289 162.34898018587324,-78.18314824680297 224.69796037174666,-8.526512829121202e-14 202.44586697611535,97.49279121818225 112.34898018587354,140.88116512993815 22.25209339563162,97.49279121818249 4.618527782440651e-14,1.9895196601282805e-13" stroke="#000" fill="none" stroke-linecap="round" stroke-linejoin="round"/><polyline points="4.618527782440651e-14,1.9895196601282805e-13 22.25209339563133,-97.49279121818215 112.34898018587313,-140.8811651299381 202.44586697611504,-97.49279121818248 224.69796037174666,-2.2737367544323206e-13 162.34898018587353,78.18314824680282 62.348980185873614,78.18314824680303 1.4210854715202004e-13,2.5579538487363607e-13" stroke="#000" fill="none" stroke-linecap="round" stroke-linejoin="round"/><polyline points="1.4210854715202004e-13,2.5579538487363607e-13 -22.2520933956315,-97.49279121818196 40.0968867902416,-175.67593946498502 140.0968867902415,-175.67593946498528 202.445866976115,-97.49279121818255 180.19377358048388,-2.4158453015843406e-13 90.09688679024221,43.38837391175578 2.8421709430404007e-13,2.913225216616411e-13" stroke="#000" fill="none" stroke-linecap="round" stroke-linejoin="round"/><polyline points="2.8421709430404007e-13,2.913225216616411e-13 -62.34898018587323,-78.1831482468024 -40.09688679024214,-175.6759394649847 49.99999999999949,-219.06431337674076 140.0968867902414,-175.67593946498533 162.34898018587316,-78.1831482468032 100.0000000000002,-1.1368683772161603e-13 3.694822225952521e-13,2.7489122089718876e-13" stroke="#000" fill="none" stroke-linecap="round" stroke-linejoin="round"/><polyline points="3.694822225952521e-13,2.7489122089718876e-13 -90.09688679024157,-43.38837391175509 -112.34898018587339,-140.88116512993716 -50.0000000000005,-219.06431337674024 49.999999999999304,-219.0643133767407 112.34898018587288,-140.88116512993815 90.09688679024194,-43.38837391175589 4.405364961712621e-13,2.6290081223123707e-13" stroke="#000" fill="none" stroke-linecap="round" stroke-linejoin="round"/><polyline points="4.405364961712621e-13,2.6290081223123707e-13 -99.99999999999933,7.625011733125575e-13 -162.34898018587296,-78.18314824680171 -140.09688679024208,-175.67593946498397 -50.000000000000625,-219.06431337674016 40.0968867902413,-175.67593946498494 62.34898018587323,-78.18314824680294 4.902744876744691e-13,1.9895196601282805e-13" stroke="#000" fill="none" stroke-linecap="round" stroke-linejoin="round"/><polyline points="4.902744876744691e-13,1.9895196601282805e-13 -90.09688679024092,43.388373911756425 -180.19377358048285,1.2718714970105793e-12 -202.44586697611484,-97.49279121818068 -140.09688679024217,-175.67593946498383 -40.09688679024245,-175.67593946498445 22.252093395631228,-97.4927912181821 4.973799150320701e-13,1.1368683772161603e-13" stroke="#000" fill="none" stroke-linecap="round" stroke-linejoin="round"/><polyline points="4.973799150320701e-13,1.1368683772161603e-13 -62.34898018587214,78.18314824680328 -162.34898018587185,78.18314824680397 -224.69796037174555,1.6626700016786344e-12 -202.44586697611487,-97.49279121818056 -112.34898018587356,-140.88116512993687 -22.25209339563162,-97.49279121818185 4.689582056016661e-13,2.842170943040401e-14" stroke="#000" fill="none" stroke-linecap="round" stroke-linejoin="round"/><polyline points="4.689582056016661e-13,2.842170943040401e-14 -22.25209339563016,97.49279121818223 -112.34898018587143,140.8811651299386 -202.4458669761134,97.49279121818365 -224.69796037174552,1.8189894035458565e-12 -162.34898018587302,-78.18314824680138 -62.34898018587339,-78.1831482468022 3.836930773104541e-13,-2.842170943040401e-14" stroke="#000" fill="none" stroke-linecap="round" stroke-linejoin="round"/><polyline points="3.836930773104541e-13,-2.842170943040401e-14 22.25209339563256,97.49279121818176 -40.09688679023988,175.675939464985 -140.09688679023947,175.67593946498587 -202.44586697611325,97.49279121818375 -180.19377358048277,1.6058265828178264e-12 -90.09688679024164,-43.38837391175485 2.8421709430404007e-13,-7.105427357601002e-14" stroke="#000" fill="none" stroke-linecap="round" stroke-linejoin="round"/><polyline points="2.8421709430404007e-13,-7.105427357601002e-14 62.34898018587411,78.18314824680199 40.096886790243694,175.67593946498414 -49.99999999999741,219.06431337674064 -140.09688679023935,175.6759394649859 -162.34898018587165,78.1831482468042 -99.99999999999937,9.379164112033322e-13 1.7053025658242404e-13,-8.348877145181177e-14" stroke="#000" fill="none" stroke-linecap="round" stroke-linejoin="round"/><polyline points="1.7053025658242404e-13,-8.348877145181177e-14 90.09688679024212,43.388373911754606 112.34898018587447,140.88116512993628 50.00000000000223,219.06431337673956 -49.9999999999973,219.0643133767406 -112.3489801858712,140.88116512993867 -90.09688679024093,43.38837391175653 7.105427357601002e-14,-7.105427357601002e-14" stroke="#000" fill="none" stroke-linecap="round" stroke-linejoin="round"/><polyline points="7.105427357601002e-14,-7.105427357601002e-14 99.99999999999959,-1.1812772982011666e-12 162.34898018587353,78.18314824680073 140.0968867902433,175.67593946498286 50.00000000000233,219.06431337673948 -40.09688679023962,175.67593946498494 -62.34898018587207,78.18314824680334 4.263256414560601e-14,5.684341886080802e-14" stroke="#000" fill="none" stroke-linecap="round" stroke-linejoin="round"/><line x1="0.0" y1="0.0" x2="0.0" y2="0.0" stroke="none" fill="none" stroke-linecap="round"/><polygon points="4.263256414560601e-14,5.684341886080802e-14 -9.000000000000016,-4.9999999999998375 -6.999999999999957,1.3922196728799508e-13 -8.999999999999899,5.0000000000001625" stroke="#000" fill="#000" fill-rule="evenodd" stroke-linejoin="round"/></svg>